<svg width="1917" height="1917" viewBox="0 0 1917 1917" fill="none" xmlns="http://www.w3.org/2000/svg">
<g clip-path="url(#clip0_292_10)">
<rect width="1917" height="1917" fill="#108786"/>
<g clip-path="url(#clip1_292_10)">
<mask id="mask0_292_10" style="mask-type:luminance" maskUnits="userSpaceOnUse" x="227" y="-111" width="1362" height="2402">
<path d="M1588.01 -110.999H227.007V2290.11H1588.01V-110.999Z" fill="white"/>
</mask>
<g mask="url(#mask0_292_10)">
<path d="M865.609 1278.09L547.919 1472.6L504.148 2373.46" stroke="white" stroke-width="15.2329" stroke-miterlimit="10"/>
<path d="M819.42 1258.13L501.731 1452.63L457.96 2353.49" stroke="white" stroke-width="15.2329" stroke-miterlimit="10"/>
<path d="M768.365 1238.16L450.675 1432.67L406.904 2333.53" stroke="white" stroke-width="15.2329" stroke-miterlimit="10"/>
<path d="M818.415 1696.85C818.415 1696.85 799.95 1574.92 856.457 1544.69C856.457 1544.69 881.186 1648.56 818.415 1696.85Z" fill="white"/>
<path d="M765.97 1520.14C765.97 1520.14 734.997 1617.26 806.176 1699.29C806.176 1699.29 833.894 1594.08 765.97 1520.14Z" fill="white"/>
<path d="M698.594 1597.3C698.594 1597.3 773.482 1588.83 792.545 1708C792.545 1708 714.359 1704.14 698.594 1597.3Z" fill="white"/>
<path d="M719.785 1657.19C766.688 1641.36 813.592 1625.54 860.495 1609.71" stroke="black" stroke-width="2.33551" stroke-miterlimit="10"/>
<path d="M732.829 1676.08C773.756 1661.34 814.683 1646.58 855.61 1631.84" stroke="black" stroke-width="2.33551" stroke-miterlimit="10"/>
<path d="M747.498 1689.56C781.542 1677.34 815.586 1665.1 849.63 1652.88" stroke="black" stroke-width="2.33551" stroke-miterlimit="10"/>
<path d="M793.922 841.165C793.922 841.165 852.222 1056.17 786.957 1151.51C786.957 1151.51 942.278 1276.83 1087.89 1157.71L1074.31 1118.07C1074.31 1118.07 854.715 1112.66 793.922 841.165Z" fill="white" stroke="black" stroke-width="4.29913" stroke-miterlimit="10"/>
<path d="M793.058 760.876C793.058 760.876 787.391 710.026 728.885 706.887C720.58 708.209 708.546 711.347 697.108 719.667C661.745 745.433 660.22 800.619 670.112 836.068C673.43 847.96 680.952 868.028 699.499 888.736C699.499 888.736 768.597 934.549 793.924 862.309C793.924 862.309 836.891 1011.87 913.098 1062.57C913.098 1062.57 999.445 1140.59 1093.54 1131.53C1111.26 1131.61 1135.52 1128.72 1155.3 1113.01C1178.49 1094.59 1177.7 1072.73 1194.68 1036.66C1220.01 982.818 1244.43 983.293 1266.93 940.618C1280.21 915.472 1292.69 875.584 1283.52 813.895C1292.76 746.507 1301.99 679.119 1311.2 611.731C1284.22 592.716 1247.23 571.988 1200.37 559.394C1055.97 520.58 931.769 589.516 899.93 608.49C866.793 622.343 833.655 636.196 800.497 650.029C798.025 686.964 795.552 723.9 793.058 760.835V760.876Z" fill="white" stroke="black" stroke-width="2.73716" stroke-miterlimit="10"/>
<path d="M670.917 756.105C658.656 733.498 636.605 685.208 638.584 621.474C641.407 530.178 691.69 469.686 695.894 464.731C699.768 460.189 711.288 447.265 724.497 427.424C745.517 395.877 751.741 374.53 760.005 360.594C773.544 337.739 801.735 310.259 867.042 293.681C897.356 301.856 943.249 310.259 997.427 303.384C1060.38 295.415 1071.02 274.893 1107.72 283.42C1152.07 293.722 1181.85 334.208 1229.43 398.892C1244.82 419.806 1256.36 437.954 1263.93 450.424C1276.6 460.127 1289.27 469.851 1301.97 479.555C1301.97 479.555 1326.97 492.5 1325.34 547.541C1325.34 547.541 1341.78 586.706 1325.42 637.536C1325.42 637.536 1198.52 527.391 951.43 595.46C919.097 599.796 862.858 611.998 807.011 651.555C779.871 670.776 759.757 691.525 745.353 709.136C738.655 707.588 730.206 706.741 720.912 708.599C686.765 715.392 672.339 752.286 670.917 756.085V756.105Z" fill="black" stroke="white" stroke-width="1.16032" stroke-miterlimit="10"/>
<path d="M670.5 509.017C810.406 451.519 962.842 423.709 1114.04 431.265C1164.41 433.805 1214.55 440.246 1263.94 450.445C1214.44 441.031 1164.28 435.167 1113.98 432.937C962.924 426.207 811.107 453.81 670.521 509.038L670.5 509.017Z" fill="white"/>
<path d="M796.051 436.859C791.6 416.254 797.143 393.544 809.611 376.697C813.691 370.916 818.926 366.085 824.448 361.894C806.293 382.663 796.298 409.255 796.051 436.859Z" fill="white"/>
<path d="M1180.4 423.917C1180.15 396.314 1170.18 369.722 1152 348.953C1157.53 353.144 1162.76 357.995 1166.84 363.756C1179.33 380.603 1184.85 403.313 1180.4 423.917Z" fill="white"/>
<path d="M1217.89 550.908C1220.31 523.408 1212.93 495.99 1196.83 473.589C1201.92 478.297 1206.68 483.603 1210.17 489.755C1220.96 507.717 1224.28 530.84 1217.87 550.908H1217.89Z" fill="white"/>
<path d="M786.958 602.357C772.367 587.183 765.113 564.989 766.886 544.095C767.318 537.034 769.235 530.18 771.728 523.697C767.133 550.908 772.718 578.759 786.958 602.357Z" fill="white"/>
<path d="M728.889 629.381C716.112 612.658 711.434 589.783 715.556 569.219C716.771 562.262 719.471 555.655 722.686 549.523C715.04 576.033 717.39 604.317 728.889 629.381Z" fill="white"/>
<path d="M879.751 306.337C887.788 315.07 895.578 324.01 903.223 333.094C899.225 350.912 894.712 368.605 890.034 386.257C885.459 403.125 880.225 421.458 874.702 437.996C877.01 425.216 880.101 411.094 883.007 398.376C888.138 376.616 893.744 354.566 899.885 333.115L900.194 334.539C893.187 325.269 886.325 315.896 879.73 306.337H879.751Z" fill="white"/>
<path d="M1107.23 296.075C1100.63 305.634 1093.77 315.007 1086.76 324.277L1087.07 322.853C1093.21 344.304 1098.84 366.374 1103.95 388.114C1106.88 400.832 1109.95 414.933 1112.26 427.733C1106.73 411.217 1101.5 392.863 1096.92 375.995C1092.22 358.343 1087.73 340.649 1083.73 322.832C1091.38 313.748 1099.17 304.808 1107.21 296.075H1107.23Z" fill="white"/>
<path d="M973.189 311.664C983.967 316.702 994.601 322.028 1005.15 327.52C1008.28 345.503 1010.9 363.568 1013.33 381.674C1015.58 399.016 1017.76 417.928 1019 435.332C1015.31 418.32 1012.08 399.512 1009.36 382.252C1006.64 364.497 1004.12 346.7 1002.08 328.841L1002.91 330.039C992.87 324.113 982.937 318.044 973.189 311.685V311.664Z" fill="white"/>
<path d="M1258.86 587.243C1266.96 546.881 1271.68 504.536 1260.07 464.401C1277.36 501.604 1272.67 549.544 1258.86 587.243Z" fill="white"/>
<path d="M856.74 602.892C842.953 565.192 838.234 517.274 855.524 480.049C843.922 520.185 848.62 562.529 856.74 602.892Z" fill="white"/>
<path d="M1322.97 615.528C1329.03 574.814 1331.56 532.284 1317.94 492.788C1337.08 529.084 1334.84 577.168 1322.97 615.528Z" fill="white"/>
<path d="M1376.71 866.105C1378.11 866.105 1378.11 863.937 1376.71 863.937C1375.31 863.937 1375.31 866.105 1376.71 866.105Z" fill="black"/>
<path d="M699.501 727.902C704.035 727.902 704.035 720.862 699.501 720.862C694.967 720.862 694.967 727.902 699.501 727.902Z" fill="black"/>
<path d="M699.497 738.989C704.031 738.989 704.031 731.949 699.497 731.949C694.963 731.949 694.963 738.989 699.497 738.989Z" fill="black"/>
<path d="M699.496 752.616C704.03 752.616 704.03 745.576 699.496 745.576C694.962 745.576 694.962 752.616 699.496 752.616Z" fill="black"/>
<path d="M699.503 764.549C704.037 764.549 704.037 757.509 699.503 757.509C694.969 757.509 694.969 764.549 699.503 764.549Z" fill="black"/>
<path d="M699.499 780.756C704.033 780.756 704.033 773.715 699.499 773.715C694.965 773.715 694.965 780.756 699.499 780.756Z" fill="black"/>
<path d="M698.631 792.69C703.164 792.69 703.164 785.65 698.631 785.65C694.097 785.65 694.097 792.69 698.631 792.69Z" fill="black"/>
<path d="M698.631 804.623C703.164 804.623 703.164 797.582 698.631 797.582C694.097 797.582 694.097 804.623 698.631 804.623Z" fill="black"/>
<path d="M699.505 819.114C704.038 819.114 704.038 812.074 699.505 812.074C694.971 812.074 694.971 819.114 699.505 819.114Z" fill="black"/>
<path d="M699.503 832.743C704.037 832.743 704.037 825.703 699.503 825.703C694.969 825.703 694.969 832.743 699.503 832.743Z" fill="black"/>
<path d="M699.503 845.543C704.037 845.543 704.037 838.503 699.503 838.503C694.969 838.503 694.969 845.543 699.503 845.543Z" fill="black"/>
<path d="M699.498 860.882C704.032 860.882 704.032 853.842 699.498 853.842C694.964 853.842 694.964 860.882 699.498 860.882Z" fill="black"/>
<path d="M711.507 725.343C716.04 725.343 716.04 718.303 711.507 718.303C706.973 718.303 706.973 725.343 711.507 725.343Z" fill="black"/>
<path d="M712.381 737.275C716.914 737.275 716.914 730.235 712.381 730.235C707.847 730.235 707.847 737.275 712.381 737.275Z" fill="black"/>
<path d="M711.51 750.923C716.043 750.923 716.043 743.883 711.51 743.883C706.976 743.883 706.976 750.923 711.51 750.923Z" fill="black"/>
<path d="M713.223 766.262C717.756 766.262 717.756 759.222 713.223 759.222C708.689 759.222 708.689 766.262 713.223 766.262Z" fill="black"/>
<path d="M713.222 778.196C717.755 778.196 717.755 771.156 713.222 771.156C708.688 771.156 708.688 778.196 713.222 778.196Z" fill="black"/>
<path d="M712.378 792.688C716.912 792.688 716.912 785.648 712.378 785.648C707.844 785.648 707.844 792.688 712.378 792.688Z" fill="black"/>
<path d="M712.377 803.756C716.911 803.756 716.911 796.716 712.377 796.716C707.843 796.716 707.843 803.756 712.377 803.756Z" fill="black"/>
<path d="M712.373 817.401C716.907 817.401 716.907 810.361 712.373 810.361C707.839 810.361 707.839 817.401 712.373 817.401Z" fill="black"/>
<path d="M711.513 831.897C716.046 831.897 716.046 824.856 711.513 824.856C706.979 824.856 706.979 831.897 711.513 831.897Z" fill="black"/>
<path d="M712.383 844.673C716.916 844.673 716.916 837.633 712.383 837.633C707.849 837.633 707.849 844.673 712.383 844.673Z" fill="black"/>
<path d="M711.509 857.475C716.042 857.475 716.042 850.434 711.509 850.434C706.975 850.434 706.975 857.475 711.509 857.475Z" fill="black"/>
<path d="M713.225 871.969C717.758 871.969 717.758 864.928 713.225 864.928C708.691 864.928 708.691 871.969 713.225 871.969Z" fill="black"/>
<path d="M725.242 724.496C729.776 724.496 729.776 717.456 725.242 717.456C720.708 717.456 720.708 724.496 725.242 724.496Z" fill="black"/>
<path d="M725.241 740.681C729.775 740.681 729.775 733.641 725.241 733.641C720.707 733.641 720.707 740.681 725.241 740.681Z" fill="black"/>
<path d="M725.24 752.615C729.774 752.615 729.774 745.575 725.24 745.575C720.706 745.575 720.706 752.615 725.24 752.615Z" fill="black"/>
<path d="M725.239 767.111C729.773 767.111 729.773 760.07 725.239 760.07C720.705 760.07 720.705 767.111 725.239 767.111Z" fill="black"/>
<path d="M726.109 780.757C730.643 780.757 730.643 773.717 726.109 773.717C721.576 773.717 721.576 780.757 726.109 780.757Z" fill="black"/>
<path d="M725.243 792.688C729.777 792.688 729.777 785.648 725.243 785.648C720.709 785.648 720.709 792.688 725.243 792.688Z" fill="black"/>
<path d="M726.112 805.47C730.646 805.47 730.646 798.43 726.112 798.43C721.578 798.43 721.578 805.47 726.112 805.47Z" fill="black"/>
<path d="M724.391 816.554C728.924 816.554 728.924 809.514 724.391 809.514C719.857 809.514 719.857 816.554 724.391 816.554Z" fill="black"/>
<path d="M724.397 831.049C728.931 831.049 728.931 824.009 724.397 824.009C719.864 824.009 719.864 831.049 724.397 831.049Z" fill="black"/>
<path d="M725.243 843.83C729.777 843.83 729.777 836.789 725.243 836.789C720.709 836.789 720.709 843.83 725.243 843.83Z" fill="black"/>
<path d="M725.235 858.322C729.769 858.322 729.769 851.282 725.235 851.282C720.702 851.282 720.702 858.322 725.235 858.322Z" fill="black"/>
<path d="M725.234 875.376C729.768 875.376 729.768 868.336 725.234 868.336C720.701 868.336 720.701 875.376 725.234 875.376Z" fill="black"/>
<path d="M685.768 753.461C690.302 753.461 690.302 746.421 685.768 746.421C681.235 746.421 681.235 753.461 685.768 753.461Z" fill="black"/>
<path d="M686.62 737.277C691.154 737.277 691.154 730.237 686.62 730.237C682.086 730.237 682.086 737.277 686.62 737.277Z" fill="black"/>
<path d="M684.909 766.264C689.443 766.264 689.443 759.224 684.909 759.224C680.375 759.224 680.375 766.264 684.909 766.264Z" fill="black"/>
<path d="M684.909 778.196C689.443 778.196 689.443 771.156 684.909 771.156C680.375 771.156 680.375 778.196 684.909 778.196Z" fill="black"/>
<path d="M684.908 791.821C689.442 791.821 689.442 784.781 684.908 784.781C680.374 784.781 680.374 791.821 684.908 791.821Z" fill="black"/>
<path d="M684.907 803.755C689.441 803.755 689.441 796.715 684.907 796.715C680.373 796.715 680.373 803.755 684.907 803.755Z" fill="black"/>
<path d="M685.772 818.25C690.306 818.25 690.306 811.21 685.772 811.21C681.239 811.21 681.239 818.25 685.772 818.25Z" fill="black"/>
<path d="M685.772 832.742C690.306 832.742 690.306 825.701 685.772 825.701C681.239 825.701 681.239 832.742 685.772 832.742Z" fill="black"/>
<path d="M685.768 846.388C690.302 846.388 690.302 839.348 685.768 839.348C681.235 839.348 681.235 846.388 685.768 846.388Z" fill="black"/>
<path d="M738.114 727.055C742.648 727.055 742.648 720.015 738.114 720.015C733.58 720.015 733.58 727.055 738.114 727.055Z" fill="black"/>
<path d="M738.121 738.99C742.655 738.99 742.655 731.95 738.121 731.95C733.587 731.95 733.587 738.99 738.121 738.99Z" fill="black"/>
<path d="M738.116 756.89C742.65 756.89 742.65 749.85 738.116 749.85C733.582 749.85 733.582 756.89 738.116 756.89Z" fill="black"/>
<path d="M738.99 767.956C743.524 767.956 743.524 760.916 738.99 760.916C734.456 760.916 734.456 767.956 738.99 767.956Z" fill="black"/>
<path d="M738.985 776.482C743.519 776.482 743.519 769.442 738.985 769.442C734.452 769.442 734.452 776.482 738.985 776.482Z" fill="black"/>
<path d="M740.69 787.569C745.224 787.569 745.224 780.529 740.69 780.529C736.157 780.529 736.157 787.569 740.69 787.569Z" fill="black"/>
<path d="M740.69 799.503C745.224 799.503 745.224 792.463 740.69 792.463C736.157 792.463 736.157 799.503 740.69 799.503Z" fill="black"/>
<path d="M740.69 809.741C745.224 809.741 745.224 802.701 740.69 802.701C736.157 802.701 736.157 809.741 740.69 809.741Z" fill="black"/>
<path d="M740.692 824.215C745.226 824.215 745.226 817.174 740.692 817.174C736.159 817.174 736.159 824.215 740.692 824.215Z" fill="black"/>
<path d="M739.852 835.303C744.386 835.303 744.386 828.263 739.852 828.263C735.319 828.263 735.319 835.303 739.852 835.303Z" fill="black"/>
<path d="M739.852 845.544C744.386 845.544 744.386 838.503 739.852 838.503C735.319 838.503 735.319 845.544 739.852 845.544Z" fill="black"/>
<path d="M740.691 858.322C745.225 858.322 745.225 851.282 740.691 851.282C736.158 851.282 736.158 858.322 740.691 858.322Z" fill="black"/>
<path d="M739.852 869.407C744.386 869.407 744.386 862.367 739.852 862.367C735.319 862.367 735.319 869.407 739.852 869.407Z" fill="black"/>
<path d="M738.988 882.186C743.522 882.186 743.522 875.146 738.988 875.146C734.454 875.146 734.454 882.186 738.988 882.186Z" fill="black"/>
<path d="M753.578 736.429C758.112 736.429 758.112 729.389 753.578 729.389C749.044 729.389 749.044 736.429 753.578 736.429Z" fill="black"/>
<path d="M752.71 755.175C757.244 755.175 757.244 748.135 752.71 748.135C748.176 748.135 748.176 755.175 752.71 755.175Z" fill="black"/>
<path d="M752.709 773.924C757.243 773.924 757.243 766.884 752.709 766.884C748.175 766.884 748.175 773.924 752.709 773.924Z" fill="black"/>
<path d="M754.437 790.129C758.971 790.129 758.971 783.089 754.437 783.089C749.904 783.089 749.904 790.129 754.437 790.129Z" fill="black"/>
<path d="M750.99 802.911C755.524 802.911 755.524 795.871 750.99 795.871C746.456 795.871 746.456 802.911 750.99 802.911Z" fill="black"/>
<path d="M751.859 818.247C756.393 818.247 756.393 811.207 751.859 811.207C747.326 811.207 747.326 818.247 751.859 818.247Z" fill="black"/>
<path d="M751.863 831.897C756.397 831.897 756.397 824.857 751.863 824.857C747.329 824.857 747.329 831.897 751.863 831.897Z" fill="black"/>
<path d="M751.862 843.829C756.396 843.829 756.396 836.788 751.862 836.788C747.328 836.788 747.328 843.829 751.862 843.829Z" fill="black"/>
<path d="M751.858 857.475C756.392 857.475 756.392 850.435 751.858 850.435C747.325 850.435 747.325 857.475 751.858 857.475Z" fill="black"/>
<path d="M753.574 871.102C758.108 871.102 758.108 864.061 753.574 864.061C749.04 864.061 749.04 871.102 753.574 871.102Z" fill="black"/>
<path d="M752.712 882.187C757.246 882.187 757.246 875.146 752.712 875.146C748.178 875.146 748.178 882.187 752.712 882.187Z" fill="black"/>
<path d="M766.454 739.836C770.988 739.836 770.988 732.795 766.454 732.795C761.92 732.795 761.92 739.836 766.454 739.836Z" fill="black"/>
<path d="M766.453 751.768C770.987 751.768 770.987 744.728 766.453 744.728C761.919 744.728 761.919 751.768 766.453 751.768Z" fill="black"/>
<path d="M768.166 765.416C772.7 765.416 772.7 758.376 768.166 758.376C763.632 758.376 763.632 765.416 768.166 765.416Z" fill="black"/>
<path d="M764.725 782.451C769.259 782.451 769.259 775.41 764.725 775.41C760.192 775.41 760.192 782.451 764.725 782.451Z" fill="black"/>
<path d="M764.725 791.822C769.259 791.822 769.259 784.782 764.725 784.782C760.192 784.782 760.192 791.822 764.725 791.822Z" fill="black"/>
<path d="M766.45 804.622C770.984 804.622 770.984 797.582 766.45 797.582C761.916 797.582 761.916 804.622 766.45 804.622Z" fill="black"/>
<path d="M766.449 818.249C770.983 818.249 770.983 811.209 766.449 811.209C761.915 811.209 761.915 818.249 766.449 818.249Z" fill="black"/>
<path d="M765.591 833.609C770.124 833.609 770.124 826.569 765.591 826.569C761.057 826.569 761.057 833.609 765.591 833.609Z" fill="black"/>
<path d="M765.589 844.675C770.122 844.675 770.122 837.635 765.589 837.635C761.055 837.635 761.055 844.675 765.589 844.675Z" fill="black"/>
<path d="M765.589 856.608C770.122 856.608 770.122 849.568 765.589 849.568C761.055 849.568 761.055 856.608 765.589 856.608Z" fill="black"/>
<path d="M765.588 873.663C770.121 873.663 770.121 866.623 765.588 866.623C761.054 866.623 761.054 873.663 765.588 873.663Z" fill="black"/>
<path d="M778.467 751.768C783 751.768 783 744.728 778.467 744.728C773.933 744.728 773.933 751.768 778.467 751.768Z" fill="black"/>
<path d="M779.313 765.417C783.847 765.417 783.847 758.376 779.313 758.376C774.78 758.376 774.78 765.417 779.313 765.417Z" fill="black"/>
<path d="M779.316 780.757C783.85 780.757 783.85 773.716 779.316 773.716C774.783 773.716 774.783 780.757 779.316 780.757Z" fill="black"/>
<path d="M780.178 790.976C784.711 790.976 784.711 783.935 780.178 783.935C775.644 783.935 775.644 790.976 780.178 790.976Z" fill="black"/>
<path d="M780.177 805.469C784.71 805.469 784.71 798.429 780.177 798.429C775.643 798.429 775.643 805.469 780.177 805.469Z" fill="black"/>
<path d="M778.467 817.402C783 817.402 783 810.362 778.467 810.362C773.933 810.362 773.933 817.402 778.467 817.402Z" fill="black"/>
<path d="M778.467 834.456C783 834.456 783 827.415 778.467 827.415C773.933 827.415 773.933 834.456 778.467 834.456Z" fill="black"/>
<path d="M778.473 858.322C783.006 858.322 783.006 851.282 778.473 851.282C773.939 851.282 773.939 858.322 778.473 858.322Z" fill="black"/>
<path d="M778.474 848.949C783.007 848.949 783.007 841.908 778.474 841.908C773.94 841.908 773.94 848.949 778.474 848.949Z" fill="black"/>
<path d="M793.06 750.924C797.594 750.924 797.594 743.883 793.06 743.883C788.527 743.883 788.527 750.924 793.06 750.924Z" fill="black"/>
<path d="M793.926 767.11C798.459 767.11 798.459 760.07 793.926 760.07C789.392 760.07 789.392 767.11 793.926 767.11Z" fill="black"/>
<path d="M793.921 779.89C798.455 779.89 798.455 772.85 793.921 772.85C789.387 772.85 789.387 779.89 793.921 779.89Z" fill="black"/>
<path d="M793.924 790.977C798.457 790.977 798.457 783.937 793.924 783.937C789.39 783.937 789.39 790.977 793.924 790.977Z" fill="black"/>
<path d="M792.195 802.061C796.729 802.061 796.729 795.021 792.195 795.021C787.661 795.021 787.661 802.061 792.195 802.061Z" fill="black"/>
<path d="M792.19 819.962C796.724 819.962 796.724 812.922 792.19 812.922C787.657 812.922 787.657 819.962 792.19 819.962Z" fill="black"/>
<path d="M793.06 831.049C797.594 831.049 797.594 824.009 793.06 824.009C788.527 824.009 788.527 831.049 793.06 831.049Z" fill="black"/>
<path d="M793.926 844.675C798.459 844.675 798.459 837.635 793.926 837.635C789.392 837.635 789.392 844.675 793.926 844.675Z" fill="black"/>
<path d="M806.784 738.992C811.318 738.992 811.318 731.952 806.784 731.952C802.25 731.952 802.25 738.992 806.784 738.992Z" fill="black"/>
<path d="M805.94 750.056C810.474 750.056 810.474 743.015 805.94 743.015C801.407 743.015 801.407 750.056 805.94 750.056Z" fill="black"/>
<path d="M805.939 764.551C810.473 764.551 810.473 757.511 805.939 757.511C801.406 757.511 801.406 764.551 805.939 764.551Z" fill="black"/>
<path d="M805.934 779.889C810.468 779.889 810.468 772.849 805.934 772.849C801.401 772.849 801.401 779.889 805.934 779.889Z" fill="black"/>
<path d="M806.785 792.688C811.319 792.688 811.319 785.648 806.785 785.648C802.251 785.648 802.251 792.688 806.785 792.688Z" fill="black"/>
<path d="M806.784 807.184C811.318 807.184 811.318 800.144 806.784 800.144C802.25 800.144 802.25 807.184 806.784 807.184Z" fill="black"/>
<path d="M806.784 821.675C811.318 821.675 811.318 814.635 806.784 814.635C802.25 814.635 802.25 821.675 806.784 821.675Z" fill="black"/>
<path d="M806.783 831.047C811.317 831.047 811.317 824.007 806.783 824.007C802.249 824.007 802.249 831.047 806.783 831.047Z" fill="black"/>
<path d="M806.782 844.672C811.316 844.672 811.316 837.632 806.782 837.632C802.248 837.632 802.248 844.672 806.782 844.672Z" fill="black"/>
<path d="M809.361 858.322C813.895 858.322 813.895 851.282 809.361 851.282C804.828 851.282 804.828 858.322 809.361 858.322Z" fill="black"/>
<path d="M820.53 735.561C825.064 735.561 825.064 728.521 820.53 728.521C815.996 728.521 815.996 735.561 820.53 735.561Z" fill="black"/>
<path d="M818.797 750.924C823.33 750.924 823.33 743.884 818.797 743.884C814.263 743.884 814.263 750.924 818.797 750.924Z" fill="black"/>
<path d="M819.658 763.704C824.192 763.704 824.192 756.664 819.658 756.664C815.124 756.664 815.124 763.704 819.658 763.704Z" fill="black"/>
<path d="M819.657 779.889C824.191 779.889 824.191 772.849 819.657 772.849C815.123 772.849 815.123 779.889 819.657 779.889Z" fill="black"/>
<path d="M819.665 794.384C824.199 794.384 824.199 787.344 819.665 787.344C815.131 787.344 815.131 794.384 819.665 794.384Z" fill="black"/>
<path d="M819.657 809.743C824.191 809.743 824.191 802.703 819.657 802.703C815.123 802.703 815.123 809.743 819.657 809.743Z" fill="black"/>
<path d="M819.664 821.676C824.198 821.676 824.198 814.636 819.664 814.636C815.13 814.636 815.13 821.676 819.664 821.676Z" fill="black"/>
<path d="M820.529 832.742C825.063 832.742 825.063 825.702 820.529 825.702C815.995 825.702 815.995 832.742 820.529 832.742Z" fill="black"/>
<path d="M820.528 842.117C825.062 842.117 825.062 835.077 820.528 835.077C815.995 835.077 815.995 842.117 820.528 842.117Z" fill="black"/>
<path d="M819.666 853.202C824.2 853.202 824.2 846.162 819.666 846.162C815.132 846.162 815.132 853.202 819.666 853.202Z" fill="black"/>
<path d="M820.532 862.573C825.066 862.573 825.066 855.533 820.532 855.533C815.998 855.533 815.998 862.573 820.532 862.573Z" fill="black"/>
<path d="M819.661 873.662C824.195 873.662 824.195 866.622 819.661 866.622C815.127 866.622 815.127 873.662 819.661 873.662Z" fill="black"/>
<path d="M820.53 886.44C825.064 886.44 825.064 879.4 820.53 879.4C815.996 879.4 815.996 886.44 820.53 886.44Z" fill="black"/>
<path d="M832.536 736.43C837.07 736.43 837.07 729.39 832.536 729.39C828.002 729.39 828.002 736.43 832.536 736.43Z" fill="black"/>
<path d="M832.544 748.363C837.078 748.363 837.078 741.323 832.544 741.323C828.01 741.323 828.01 748.363 832.544 748.363Z" fill="black"/>
<path d="M833.386 762.856C837.919 762.856 837.919 755.816 833.386 755.816C828.852 755.816 828.852 762.856 833.386 762.856Z" fill="black"/>
<path d="M832.534 776.482C837.068 776.482 837.068 769.442 832.534 769.442C828 769.442 828 776.482 832.534 776.482Z" fill="black"/>
<path d="M831.676 789.282C836.209 789.282 836.209 782.242 831.676 782.242C827.142 782.242 827.142 789.282 831.676 789.282Z" fill="black"/>
<path d="M831.679 802.063C836.212 802.063 836.212 795.023 831.679 795.023C827.145 795.023 827.145 802.063 831.679 802.063Z" fill="black"/>
<path d="M832.541 815.709C837.075 815.709 837.075 808.669 832.541 808.669C828.007 808.669 828.007 815.709 832.541 815.709Z" fill="black"/>
<path d="M833.391 827.643C837.924 827.643 837.924 820.602 833.391 820.602C828.857 820.602 828.857 827.643 833.391 827.643Z" fill="black"/>
<path d="M833.386 837.861C837.919 837.861 837.919 830.821 833.386 830.821C828.852 830.821 828.852 837.861 833.386 837.861Z" fill="black"/>
<path d="M834.252 852.354C838.786 852.354 838.786 845.314 834.252 845.314C829.718 845.314 829.718 852.354 834.252 852.354Z" fill="black"/>
<path d="M834.251 864.288C838.785 864.288 838.785 857.248 834.251 857.248C829.717 857.248 829.717 864.288 834.251 864.288Z" fill="black"/>
<path d="M834.246 874.508C838.78 874.508 838.78 867.467 834.246 867.467C829.712 867.467 829.712 874.508 834.246 874.508Z" fill="black"/>
<path d="M834.254 887.309C838.788 887.309 838.788 880.269 834.254 880.269C829.72 880.269 829.72 887.309 834.254 887.309Z" fill="black"/>
<path d="M834.249 902.649C838.783 902.649 838.783 895.609 834.249 895.609C829.715 895.609 829.715 902.649 834.249 902.649Z" fill="black"/>
<path d="M834.257 914.582C838.79 914.582 838.79 907.542 834.257 907.542C829.723 907.542 829.723 914.582 834.257 914.582Z" fill="black"/>
<path d="M835.118 932.481C839.652 932.481 839.652 925.441 835.118 925.441C830.584 925.441 830.584 932.481 835.118 932.481Z" fill="black"/>
<path d="M844.551 736.429C849.084 736.429 849.084 729.389 844.551 729.389C840.017 729.389 840.017 736.429 844.551 736.429Z" fill="black"/>
<path d="M844.558 748.362C849.091 748.362 849.091 741.322 844.558 741.322C840.024 741.322 840.024 748.362 844.558 748.362Z" fill="black"/>
<path d="M845.424 760.295C849.957 760.295 849.957 753.255 845.424 753.255C840.89 753.255 840.89 760.295 845.424 760.295Z" fill="black"/>
<path d="M845.427 773.075C849.96 773.075 849.96 766.035 845.427 766.035C840.893 766.035 840.893 773.075 845.427 773.075Z" fill="black"/>
<path d="M846.268 785.009C850.802 785.009 850.802 777.969 846.268 777.969C841.735 777.969 841.735 785.009 846.268 785.009Z" fill="black"/>
<path d="M847.135 796.94C851.668 796.94 851.668 789.9 847.135 789.9C842.601 789.9 842.601 796.94 847.135 796.94Z" fill="black"/>
<path d="M847.134 807.184C851.667 807.184 851.667 800.144 847.134 800.144C842.6 800.144 842.6 807.184 847.134 807.184Z" fill="black"/>
<path d="M847.134 816.554C851.667 816.554 851.667 809.514 847.134 809.514C842.6 809.514 842.6 816.554 847.134 816.554Z" fill="black"/>
<path d="M847.996 826.775C852.53 826.775 852.53 819.735 847.996 819.735C843.462 819.735 843.462 826.775 847.996 826.775Z" fill="black"/>
<path d="M847.137 837.015C851.67 837.015 851.67 829.975 847.137 829.975C842.603 829.975 842.603 837.015 847.137 837.015Z" fill="black"/>
<path d="M847.136 848.082C851.669 848.082 851.669 841.042 847.136 841.042C842.602 841.042 842.602 848.082 847.136 848.082Z" fill="black"/>
<path d="M847.994 860.882C852.528 860.882 852.528 853.842 847.994 853.842C843.46 853.842 843.46 860.882 847.994 860.882Z" fill="black"/>
<path d="M848.002 872.815C852.536 872.815 852.536 865.775 848.002 865.775C843.468 865.775 843.468 872.815 848.002 872.815Z" fill="black"/>
<path d="M847.997 883.904C852.531 883.904 852.531 876.864 847.997 876.864C843.463 876.864 843.463 883.904 847.997 883.904Z" fill="black"/>
<path d="M847.996 895.835C852.53 895.835 852.53 888.795 847.996 888.795C843.462 888.795 843.462 895.835 847.996 895.835Z" fill="black"/>
<path d="M847.995 909.462C852.529 909.462 852.529 902.422 847.995 902.422C843.461 902.422 843.461 909.462 847.995 909.462Z" fill="black"/>
<path d="M848.842 923.11C853.375 923.11 853.375 916.07 848.842 916.07C844.308 916.07 844.308 923.11 848.842 923.11Z" fill="black"/>
<path d="M849.711 938.449C854.245 938.449 854.245 931.409 849.711 931.409C845.177 931.409 845.177 938.449 849.711 938.449Z" fill="black"/>
<path d="M849.707 952.094C854.241 952.094 854.241 945.054 849.707 945.054C845.173 945.054 845.173 952.094 849.707 952.094Z" fill="black"/>
<path d="M858.289 733.871C862.823 733.871 862.823 726.831 858.289 726.831C853.755 726.831 853.755 733.871 858.289 733.871Z" fill="black"/>
<path d="M858.284 744.089C862.818 744.089 862.818 737.049 858.284 737.049C853.75 737.049 853.75 744.089 858.284 744.089Z" fill="black"/>
<path d="M859.146 755.177C863.68 755.177 863.68 748.136 859.146 748.136C854.613 748.136 854.613 755.177 859.146 755.177Z" fill="black"/>
<path d="M860.013 767.11C864.546 767.11 864.546 760.07 860.013 760.07C855.479 760.07 855.479 767.11 860.013 767.11Z" fill="black"/>
<path d="M860.013 777.35C864.546 777.35 864.546 770.31 860.013 770.31C855.479 770.31 855.479 777.35 860.013 777.35Z" fill="black"/>
<path d="M859.148 791.82C863.682 791.82 863.682 784.78 859.148 784.78C854.615 784.78 854.615 791.82 859.148 791.82Z" fill="black"/>
<path d="M860.015 806.314C864.548 806.314 864.548 799.274 860.015 799.274C855.481 799.274 855.481 806.314 860.015 806.314Z" fill="black"/>
<path d="M860.014 818.248C864.547 818.248 864.547 811.208 860.014 811.208C855.48 811.208 855.48 818.248 860.014 818.248Z" fill="black"/>
<path d="M860.016 829.335C864.55 829.335 864.55 822.295 860.016 822.295C855.483 822.295 855.483 829.335 860.016 829.335Z" fill="black"/>
<path d="M860.859 841.269C865.393 841.269 865.393 834.228 860.859 834.228C856.326 834.228 856.326 841.269 860.859 841.269Z" fill="black"/>
<path d="M860.858 853.202C865.392 853.202 865.392 846.162 860.858 846.162C856.325 846.162 856.325 853.202 860.858 853.202Z" fill="black"/>
<path d="M860.858 866.002C865.392 866.002 865.392 858.962 860.858 858.962C856.325 858.962 856.325 866.002 860.858 866.002Z" fill="black"/>
<path d="M860.861 878.783C865.395 878.783 865.395 871.743 860.861 871.743C856.328 871.743 856.328 878.783 860.861 878.783Z" fill="black"/>
<path d="M861.724 891.561C866.257 891.561 866.257 884.52 861.724 884.52C857.19 884.52 857.19 891.561 861.724 891.561Z" fill="black"/>
<path d="M861.726 906.902C866.26 906.902 866.26 899.861 861.726 899.861C857.193 899.861 857.193 906.902 861.726 906.902Z" fill="black"/>
<path d="M861.718 921.394C866.251 921.394 866.251 914.354 861.718 914.354C857.184 914.354 857.184 921.394 861.718 921.394Z" fill="black"/>
<path d="M862.592 933.328C867.125 933.328 867.125 926.288 862.592 926.288C858.058 926.288 858.058 933.328 862.592 933.328Z" fill="black"/>
<path d="M863.433 945.262C867.967 945.262 867.967 938.221 863.433 938.221C858.9 938.221 858.9 945.262 863.433 945.262Z" fill="black"/>
<path d="M864.301 960.621C868.834 960.621 868.834 953.581 864.301 953.581C859.767 953.581 859.767 960.621 864.301 960.621Z" fill="black"/>
<path d="M872.024 733.021C876.558 733.021 876.558 725.98 872.024 725.98C867.491 725.98 867.491 733.021 872.024 733.021Z" fill="black"/>
<path d="M872.027 743.242C876.561 743.242 876.561 736.201 872.027 736.201C867.494 736.201 867.494 743.242 872.027 743.242Z" fill="black"/>
<path d="M872.873 756.022C877.407 756.022 877.407 748.982 872.873 748.982C868.339 748.982 868.339 756.022 872.873 756.022Z" fill="black"/>
<path d="M872.865 767.955C877.399 767.955 877.399 760.914 872.865 760.914C868.331 760.914 868.331 767.955 872.865 767.955Z" fill="black"/>
<path d="M873.739 780.757C878.273 780.757 878.273 773.717 873.739 773.717C869.205 773.717 869.205 780.757 873.739 780.757Z" fill="black"/>
<path d="M875.447 792.69C879.981 792.69 879.981 785.65 875.447 785.65C870.913 785.65 870.913 792.69 875.447 792.69Z" fill="black"/>
<path d="M875.446 803.757C879.98 803.757 879.98 796.717 875.446 796.717C870.912 796.717 870.912 803.757 875.446 803.757Z" fill="black"/>
<path d="M875.446 813.997C879.98 813.997 879.98 806.957 875.446 806.957C870.912 806.957 870.912 813.997 875.446 813.997Z" fill="black"/>
<path d="M875.446 825.929C879.98 825.929 879.98 818.889 875.446 818.889C870.912 818.889 870.912 825.929 875.446 825.929Z" fill="black"/>
<path d="M875.441 837.015C879.975 837.015 879.975 829.975 875.441 829.975C870.908 829.975 870.908 837.015 875.441 837.015Z" fill="black"/>
<path d="M885.05 721.688C889.583 721.688 889.583 714.647 885.05 714.647C880.516 714.647 880.516 721.688 885.05 721.688Z" fill="black"/>
<path d="M885.052 731.909C889.585 731.909 889.585 724.869 885.052 724.869C880.518 724.869 880.518 731.909 885.052 731.909Z" fill="black"/>
<path d="M885.919 744.707C890.453 744.707 890.453 737.667 885.919 737.667C881.385 737.667 881.385 744.707 885.919 744.707Z" fill="black"/>
<path d="M885.91 756.642C890.444 756.642 890.444 749.601 885.91 749.601C881.376 749.601 881.376 756.642 885.91 756.642Z" fill="black"/>
<path d="M886.78 769.42C891.314 769.42 891.314 762.38 886.78 762.38C882.246 762.38 882.246 769.42 886.78 769.42Z" fill="black"/>
<path d="M888.488 781.355C893.022 781.355 893.022 774.314 888.488 774.314C883.954 774.314 883.954 781.355 888.488 781.355Z" fill="black"/>
<path d="M888.492 792.442C893.026 792.442 893.026 785.402 888.492 785.402C883.958 785.402 883.958 792.442 888.492 792.442Z" fill="black"/>
<path d="M888.487 802.662C893.021 802.662 893.021 795.622 888.487 795.622C883.953 795.622 883.953 802.662 888.487 802.662Z" fill="black"/>
<path d="M888.486 814.596C893.02 814.596 893.02 807.555 888.486 807.555C883.953 807.555 883.953 814.596 888.486 814.596Z" fill="black"/>
<path d="M888.49 825.681C893.024 825.681 893.024 818.641 888.49 818.641C883.956 818.641 883.956 825.681 888.49 825.681Z" fill="black"/>
<path d="M888.322 835.529C892.856 835.529 892.856 828.489 888.322 828.489C883.788 828.489 883.788 835.529 888.322 835.529Z" fill="black"/>
<path d="M888.33 845.768C892.864 845.768 892.864 838.728 888.33 838.728C883.796 838.728 883.796 845.768 888.33 845.768Z" fill="black"/>
<path d="M889.168 858.55C893.702 858.55 893.702 851.51 889.168 851.51C884.634 851.51 884.634 858.55 889.168 858.55Z" fill="black"/>
<path d="M889.175 870.483C893.708 870.483 893.708 863.443 889.175 863.443C884.641 863.443 884.641 870.483 889.175 870.483Z" fill="black"/>
<path d="M890.045 883.263C894.579 883.263 894.579 876.223 890.045 876.223C885.511 876.223 885.511 883.263 890.045 883.263Z" fill="black"/>
<path d="M891.745 895.197C896.279 895.197 896.279 888.156 891.745 888.156C887.211 888.156 887.211 895.197 891.745 895.197Z" fill="black"/>
<path d="M891.749 906.282C896.283 906.282 896.283 899.242 891.749 899.242C887.215 899.242 887.215 906.282 891.749 906.282Z" fill="black"/>
<path d="M891.749 916.522C896.283 916.522 896.283 909.482 891.749 909.482C887.215 909.482 887.215 916.522 891.749 916.522Z" fill="black"/>
<path d="M891.748 928.456C896.282 928.456 896.282 921.416 891.748 921.416C887.214 921.416 887.214 928.456 891.748 928.456Z" fill="black"/>
<path d="M891.747 939.523C896.281 939.523 896.281 932.483 891.747 932.483C887.213 932.483 887.213 939.523 891.747 939.523Z" fill="black"/>
<path d="M891.58 952.077C896.114 952.077 896.114 945.037 891.58 945.037C887.046 945.037 887.046 952.077 891.58 952.077Z" fill="black"/>
<path d="M891.58 962.315C896.114 962.315 896.114 955.275 891.58 955.275C887.046 955.275 887.046 962.315 891.58 962.315Z" fill="black"/>
<path d="M892.45 975.095C896.984 975.095 896.984 968.055 892.45 968.055C887.916 968.055 887.916 975.095 892.45 975.095Z" fill="black"/>
<path d="M892.449 987.027C896.983 987.027 896.983 979.987 892.449 979.987C887.915 979.987 887.915 987.027 892.449 987.027Z" fill="black"/>
<path d="M893.295 999.81C897.829 999.81 897.829 992.77 893.295 992.77C888.761 992.77 888.761 999.81 893.295 999.81Z" fill="black"/>
<path d="M895.004 1011.74C899.538 1011.74 899.538 1004.7 895.004 1004.7C890.47 1004.7 890.47 1011.74 895.004 1011.74Z" fill="black"/>
<path d="M895 1022.83C899.534 1022.83 899.534 1015.79 895 1015.79C890.466 1015.79 890.466 1022.83 895 1022.83Z" fill="black"/>
<path d="M895.008 1033.07C899.541 1033.07 899.541 1026.03 895.008 1026.03C890.474 1026.03 890.474 1033.07 895.008 1033.07Z" fill="black"/>
<path d="M895.007 1045C899.54 1045 899.54 1037.96 895.007 1037.96C890.473 1037.96 890.473 1045 895.007 1045Z" fill="black"/>
<path d="M844.094 984.324C848.627 984.324 848.627 977.284 844.094 977.284C839.56 977.284 839.56 984.324 844.094 984.324Z" fill="black"/>
<path d="M844.96 997.124C849.494 997.124 849.494 990.083 844.96 990.083C840.426 990.083 840.426 997.124 844.96 997.124Z" fill="black"/>
<path d="M845.046 1009.06C849.58 1009.06 849.58 1002.02 845.046 1002.02C840.512 1002.02 840.512 1009.06 845.046 1009.06Z" fill="black"/>
<path d="M845.042 1021.22C849.576 1021.22 849.576 1014.18 845.042 1014.18C840.508 1014.18 840.508 1021.22 845.042 1021.22Z" fill="black"/>
<path d="M844.619 1034.51C849.153 1034.51 849.153 1027.47 844.619 1027.47C840.085 1027.47 840.085 1034.51 844.619 1034.51Z" fill="black"/>
<path d="M845.488 1047.29C850.022 1047.29 850.022 1040.25 845.488 1040.25C840.954 1040.25 840.954 1047.29 845.488 1047.29Z" fill="black"/>
<path d="M845.567 1059.23C850.101 1059.23 850.101 1052.19 845.567 1052.19C841.034 1052.19 841.034 1059.23 845.567 1059.23Z" fill="black"/>
<path d="M845.57 1071.39C850.104 1071.39 850.104 1064.35 845.57 1064.35C841.036 1064.35 841.036 1071.39 845.57 1071.39Z" fill="black"/>
<path d="M844.617 1084.71C849.151 1084.71 849.151 1077.66 844.617 1077.66C840.083 1077.66 840.083 1084.71 844.617 1084.71Z" fill="black"/>
<path d="M845.486 1097.49C850.02 1097.49 850.02 1090.45 845.486 1090.45C840.953 1090.45 840.953 1097.49 845.486 1097.49Z" fill="black"/>
<path d="M845.565 1109.42C850.099 1109.42 850.099 1102.38 845.565 1102.38C841.032 1102.38 841.032 1109.42 845.565 1109.42Z" fill="black"/>
<path d="M845.568 1121.58C850.102 1121.58 850.102 1114.54 845.568 1114.54C841.035 1114.54 841.035 1121.58 845.568 1121.58Z" fill="black"/>
<path d="M858.226 984.324C862.76 984.324 862.76 977.284 858.226 977.284C853.693 977.284 853.693 984.324 858.226 984.324Z" fill="black"/>
<path d="M859.069 997.124C863.603 997.124 863.603 990.084 859.069 990.084C854.536 990.084 854.536 997.124 859.069 997.124Z" fill="black"/>
<path d="M859.155 1009.06C863.689 1009.06 863.689 1002.02 859.155 1002.02C854.621 1002.02 854.621 1009.06 859.155 1009.06Z" fill="black"/>
<path d="M859.151 1021.22C863.685 1021.22 863.685 1014.18 859.151 1014.18C854.618 1014.18 854.618 1021.22 859.151 1021.22Z" fill="black"/>
<path d="M858.761 1034.51C863.294 1034.51 863.294 1027.47 858.761 1027.47C854.227 1027.47 854.227 1034.51 858.761 1034.51Z" fill="black"/>
<path d="M859.63 1047.29C864.163 1047.29 864.163 1040.25 859.63 1040.25C855.096 1040.25 855.096 1047.29 859.63 1047.29Z" fill="black"/>
<path d="M859.709 1059.22C864.243 1059.22 864.243 1052.18 859.709 1052.18C855.175 1052.18 855.175 1059.22 859.709 1059.22Z" fill="black"/>
<path d="M859.712 1071.39C864.246 1071.39 864.246 1064.35 859.712 1064.35C855.178 1064.35 855.178 1071.39 859.712 1071.39Z" fill="black"/>
<path d="M858.758 1084.7C863.291 1084.7 863.291 1077.66 858.758 1077.66C854.224 1077.66 854.224 1084.7 858.758 1084.7Z" fill="black"/>
<path d="M859.628 1097.48C864.162 1097.48 864.162 1090.44 859.628 1090.44C855.094 1090.44 855.094 1097.48 859.628 1097.48Z" fill="black"/>
<path d="M859.706 1109.41C864.24 1109.41 864.24 1102.37 859.706 1102.37C855.172 1102.37 855.172 1109.41 859.706 1109.41Z" fill="black"/>
<path d="M859.709 1121.58C864.243 1121.58 864.243 1114.54 859.709 1114.54C855.175 1114.54 855.175 1121.58 859.709 1121.58Z" fill="black"/>
<path d="M872.328 984.324C876.862 984.324 876.862 977.283 872.328 977.283C867.794 977.283 867.794 984.324 872.328 984.324Z" fill="black"/>
<path d="M873.194 997.123C877.728 997.123 877.728 990.083 873.194 990.083C868.661 990.083 868.661 997.123 873.194 997.123Z" fill="black"/>
<path d="M873.28 1009.06C877.814 1009.06 877.814 1002.02 873.28 1002.02C868.746 1002.02 868.746 1009.06 873.28 1009.06Z" fill="black"/>
<path d="M873.276 1021.22C877.81 1021.22 877.81 1014.18 873.276 1014.18C868.743 1014.18 868.743 1021.22 873.276 1021.22Z" fill="black"/>
<path d="M872.869 1034.51C877.403 1034.51 877.403 1027.47 872.869 1027.47C868.335 1027.47 868.335 1034.51 872.869 1034.51Z" fill="black"/>
<path d="M873.738 1047.29C878.272 1047.29 878.272 1040.25 873.738 1040.25C869.204 1040.25 869.204 1047.29 873.738 1047.29Z" fill="black"/>
<path d="M873.817 1059.22C878.351 1059.22 878.351 1052.18 873.817 1052.18C869.284 1052.18 869.284 1059.22 873.817 1059.22Z" fill="black"/>
<path d="M873.82 1071.39C878.354 1071.39 878.354 1064.35 873.82 1064.35C869.286 1064.35 869.286 1071.39 873.82 1071.39Z" fill="black"/>
<path d="M885.384 1056.09C889.917 1056.09 889.917 1049.05 885.384 1049.05C880.85 1049.05 880.85 1056.09 885.384 1056.09Z" fill="black"/>
<path d="M886.226 1068.89C890.76 1068.89 890.76 1061.85 886.226 1061.85C881.693 1061.85 881.693 1068.89 886.226 1068.89Z" fill="black"/>
<path d="M886.336 1080.82C890.87 1080.82 890.87 1073.78 886.336 1073.78C881.802 1073.78 881.802 1080.82 886.336 1080.82Z" fill="black"/>
<path d="M886.332 1092.98C890.866 1092.98 890.866 1085.94 886.332 1085.94C881.798 1085.94 881.798 1092.98 886.332 1092.98Z" fill="black"/>
<path d="M900.05 1069.05C904.583 1069.05 904.583 1062.01 900.05 1062.01C895.516 1062.01 895.516 1069.05 900.05 1069.05Z" fill="black"/>
<path d="M900.895 1081.83C905.429 1081.83 905.429 1074.79 900.895 1074.79C896.362 1074.79 896.362 1081.83 900.895 1081.83Z" fill="black"/>
<path d="M900.982 1093.77C905.516 1093.77 905.516 1086.73 900.982 1086.73C896.449 1086.73 896.449 1093.77 900.982 1093.77Z" fill="black"/>
<path d="M900.985 1105.93C905.519 1105.93 905.519 1098.89 900.985 1098.89C896.452 1098.89 896.452 1105.93 900.985 1105.93Z" fill="black"/>
<path d="M913.078 1066.35C917.612 1066.35 917.612 1059.31 913.078 1059.31C908.544 1059.31 908.544 1066.35 913.078 1066.35Z" fill="black"/>
<path d="M913.947 1079.13C918.481 1079.13 918.481 1072.09 913.947 1072.09C909.413 1072.09 909.413 1079.13 913.947 1079.13Z" fill="black"/>
<path d="M914.026 1091.06C918.56 1091.06 918.56 1084.02 914.026 1084.02C909.493 1084.02 909.493 1091.06 914.026 1091.06Z" fill="black"/>
<path d="M914.029 1103.22C918.563 1103.22 918.563 1096.18 914.029 1096.18C909.495 1096.18 909.495 1103.22 914.029 1103.22Z" fill="black"/>
<path d="M926.661 1079.29C931.195 1079.29 931.195 1072.25 926.661 1072.25C922.127 1072.25 922.127 1079.29 926.661 1079.29Z" fill="black"/>
<path d="M927.527 1092.09C932.061 1092.09 932.061 1085.05 927.527 1085.05C922.994 1085.05 922.994 1092.09 927.527 1092.09Z" fill="black"/>
<path d="M927.613 1104.03C932.147 1104.03 932.147 1096.99 927.613 1096.99C923.079 1096.99 923.079 1104.03 927.613 1104.03Z" fill="black"/>
<path d="M927.609 1116.19C932.143 1116.19 932.143 1109.15 927.609 1109.15C923.076 1109.15 923.076 1116.19 927.609 1116.19Z" fill="black"/>
<path d="M940.265 1075.51C944.798 1075.51 944.798 1068.47 940.265 1068.47C935.731 1068.47 935.731 1075.51 940.265 1075.51Z" fill="black"/>
<path d="M941.107 1088.31C945.641 1088.31 945.641 1081.27 941.107 1081.27C936.574 1081.27 936.574 1088.31 941.107 1088.31Z" fill="black"/>
<path d="M941.193 1100.25C945.727 1100.25 945.727 1093.21 941.193 1093.21C936.66 1093.21 936.66 1100.25 941.193 1100.25Z" fill="black"/>
<path d="M941.189 1112.41C945.723 1112.41 945.723 1105.37 941.189 1105.37C936.656 1105.37 936.656 1112.41 941.189 1112.41Z" fill="black"/>
<path d="M952.751 1075.52C957.285 1075.52 957.285 1068.48 952.751 1068.48C948.217 1068.48 948.217 1075.52 952.751 1075.52Z" fill="black"/>
<path d="M953.617 1088.32C958.151 1088.32 958.151 1081.27 953.617 1081.27C949.083 1081.27 949.083 1088.32 953.617 1088.32Z" fill="black"/>
<path d="M953.703 1100.25C958.237 1100.25 958.237 1093.21 953.703 1093.21C949.169 1093.21 949.169 1100.25 953.703 1100.25Z" fill="black"/>
<path d="M953.699 1112.41C958.233 1112.41 958.233 1105.37 953.699 1105.37C949.165 1105.37 949.165 1112.41 953.699 1112.41Z" fill="black"/>
<path d="M926.121 981.64C930.655 981.64 930.655 974.6 926.121 974.6C921.587 974.6 921.587 981.64 926.121 981.64Z" fill="black"/>
<path d="M926.99 994.42C931.524 994.42 931.524 987.38 926.99 987.38C922.456 987.38 922.456 994.42 926.99 994.42Z" fill="black"/>
<path d="M927.069 1006.35C931.603 1006.35 931.603 999.312 927.069 999.312C922.536 999.312 922.536 1006.35 927.069 1006.35Z" fill="black"/>
<path d="M927.072 1018.51C931.606 1018.51 931.606 1011.47 927.072 1011.47C922.538 1011.47 922.538 1018.51 927.072 1018.51Z" fill="black"/>
<path d="M939.697 997.289C944.231 997.289 944.231 990.249 939.697 990.249C935.163 990.249 935.163 997.289 939.697 997.289Z" fill="black"/>
<path d="M940.566 1010.07C945.1 1010.07 945.1 1003.03 940.566 1003.03C936.033 1003.03 936.033 1010.07 940.566 1010.07Z" fill="black"/>
<path d="M940.645 1022C945.179 1022 945.179 1014.96 940.645 1014.96C936.112 1014.96 936.112 1022 940.645 1022Z" fill="black"/>
<path d="M940.648 1034.16C945.182 1034.16 945.182 1027.12 940.648 1027.12C936.115 1027.12 936.115 1034.16 940.648 1034.16Z" fill="black"/>
<path d="M952.217 1004.29C956.75 1004.29 956.75 997.25 952.217 997.25C947.683 997.25 947.683 1004.29 952.217 1004.29Z" fill="black"/>
<path d="M953.059 1017.09C957.593 1017.09 957.593 1010.05 953.059 1010.05C948.526 1010.05 948.526 1017.09 953.059 1017.09Z" fill="black"/>
<path d="M953.145 1029.02C957.679 1029.02 957.679 1021.98 953.145 1021.98C948.612 1021.98 948.612 1029.02 953.145 1029.02Z" fill="black"/>
<path d="M953.141 1041.18C957.675 1041.18 957.675 1034.14 953.141 1034.14C948.608 1034.14 948.608 1041.18 953.141 1041.18Z" fill="black"/>
<path d="M914.703 965.989C919.237 965.989 919.237 958.948 914.703 958.948C910.169 958.948 910.169 965.989 914.703 965.989Z" fill="black"/>
<path d="M915.573 978.769C920.107 978.769 920.107 971.729 915.573 971.729C911.039 971.729 911.039 978.769 915.573 978.769Z" fill="black"/>
<path d="M915.651 990.701C920.185 990.701 920.185 983.661 915.651 983.661C911.118 983.661 911.118 990.701 915.651 990.701Z" fill="black"/>
<path d="M915.655 1002.86C920.189 1002.86 920.189 995.822 915.655 995.822C911.121 995.822 911.121 1002.86 915.655 1002.86Z" fill="black"/>
<path d="M886.469 1105.2C891.002 1105.2 891.002 1098.16 886.469 1098.16C881.935 1098.16 881.935 1105.2 886.469 1105.2Z" fill="black"/>
<path d="M887.314 1117.98C891.848 1117.98 891.848 1110.94 887.314 1110.94C882.781 1110.94 882.781 1117.98 887.314 1117.98Z" fill="black"/>
<path d="M887.393 1129.91C891.927 1129.91 891.927 1122.87 887.393 1122.87C882.86 1122.87 882.86 1129.91 887.393 1129.91Z" fill="black"/>
<path d="M887.396 1142.08C891.93 1142.08 891.93 1135.04 887.396 1135.04C882.863 1135.04 882.863 1142.08 887.396 1142.08Z" fill="black"/>
<path d="M901.122 1118.15C905.656 1118.15 905.656 1111.11 901.122 1111.11C896.588 1111.11 896.588 1118.15 901.122 1118.15Z" fill="black"/>
<path d="M901.991 1130.93C906.525 1130.93 906.525 1123.89 901.991 1123.89C897.457 1123.89 897.457 1130.93 901.991 1130.93Z" fill="black"/>
<path d="M902.07 1142.86C906.604 1142.86 906.604 1135.82 902.07 1135.82C897.536 1135.82 897.536 1142.86 902.07 1142.86Z" fill="black"/>
<path d="M902.073 1155.02C906.607 1155.02 906.607 1147.98 902.073 1147.98C897.539 1147.98 897.539 1155.02 902.073 1155.02Z" fill="black"/>
<path d="M888.103 1154.84C892.637 1154.84 892.637 1147.8 888.103 1147.8C883.57 1147.8 883.57 1154.84 888.103 1154.84Z" fill="black"/>
<path d="M888.949 1167.62C893.483 1167.62 893.483 1160.58 888.949 1160.58C884.415 1160.58 884.415 1167.62 888.949 1167.62Z" fill="black"/>
<path d="M889.036 1179.55C893.57 1179.55 893.57 1172.51 889.036 1172.51C884.502 1172.51 884.502 1179.55 889.036 1179.55Z" fill="black"/>
<path d="M889.039 1191.71C893.573 1191.71 893.573 1184.67 889.039 1184.67C884.505 1184.67 884.505 1191.71 889.039 1191.71Z" fill="black"/>
<path d="M873.975 1136.48C878.508 1136.48 878.508 1129.44 873.975 1129.44C869.441 1129.44 869.441 1136.48 873.975 1136.48Z" fill="black"/>
<path d="M874.841 1149.28C879.374 1149.28 879.374 1142.24 874.841 1142.24C870.307 1142.24 870.307 1149.28 874.841 1149.28Z" fill="black"/>
<path d="M874.927 1161.22C879.46 1161.22 879.46 1154.18 874.927 1154.18C870.393 1154.18 870.393 1161.22 874.927 1161.22Z" fill="black"/>
<path d="M874.923 1173.38C879.456 1173.38 879.456 1166.34 874.923 1166.34C870.389 1166.34 870.389 1173.38 874.923 1173.38Z" fill="black"/>
<path d="M859.85 1136.48C864.383 1136.48 864.383 1129.44 859.85 1129.44C855.316 1129.44 855.316 1136.48 859.85 1136.48Z" fill="black"/>
<path d="M860.692 1149.28C865.226 1149.28 865.226 1142.24 860.692 1142.24C856.159 1142.24 856.159 1149.28 860.692 1149.28Z" fill="black"/>
<path d="M860.802 1161.22C865.335 1161.22 865.335 1154.18 860.802 1154.18C856.268 1154.18 856.268 1161.22 860.802 1161.22Z" fill="black"/>
<path d="M860.798 1173.38C865.331 1173.38 865.331 1166.34 860.798 1166.34C856.264 1166.34 856.264 1173.38 860.798 1173.38Z" fill="black"/>
<path d="M860.796 1184.96C865.33 1184.96 865.33 1177.92 860.796 1177.92C856.262 1177.92 856.262 1184.96 860.796 1184.96Z" fill="black"/>
<path d="M874.921 1184.96C879.455 1184.96 879.455 1177.92 874.921 1177.92C870.387 1177.92 870.387 1184.96 874.921 1184.96Z" fill="black"/>
<path d="M845.173 1136.49C849.706 1136.49 849.706 1129.45 845.173 1129.45C840.639 1129.45 840.639 1136.49 845.173 1136.49Z" fill="black"/>
<path d="M846.016 1149.29C850.549 1149.29 850.549 1142.25 846.016 1142.25C841.482 1142.25 841.482 1149.29 846.016 1149.29Z" fill="black"/>
<path d="M846.125 1161.22C850.659 1161.22 850.659 1154.18 846.125 1154.18C841.591 1154.18 841.591 1161.22 846.125 1161.22Z" fill="black"/>
<path d="M846.121 1173.38C850.655 1173.38 850.655 1166.34 846.121 1166.34C841.587 1166.34 841.587 1173.38 846.121 1173.38Z" fill="black"/>
<path d="M900.592 742.067C905.125 742.067 905.125 735.027 900.592 735.027C896.058 735.027 896.058 742.067 900.592 742.067Z" fill="black"/>
<path d="M901.461 754.847C905.995 754.847 905.995 747.807 901.461 747.807C896.927 747.807 896.927 754.847 901.461 754.847Z" fill="black"/>
<path d="M901.54 766.777C906.074 766.777 906.074 759.737 901.54 759.737C897.006 759.737 897.006 766.777 901.54 766.777Z" fill="black"/>
<path d="M901.543 778.94C906.077 778.94 906.077 771.9 901.543 771.9C897.009 771.9 897.009 778.94 901.543 778.94Z" fill="black"/>
<path d="M876.158 624.445C880.692 624.445 880.692 617.405 876.158 617.405C871.624 617.405 871.624 624.445 876.158 624.445Z" fill="black"/>
<path d="M877.004 637.225C881.538 637.225 881.538 630.185 877.004 630.185C872.47 630.185 872.47 637.225 877.004 637.225Z" fill="black"/>
<path d="M877.091 649.157C881.624 649.157 881.624 642.117 877.091 642.117C872.557 642.117 872.557 649.157 877.091 649.157Z" fill="black"/>
<path d="M877.094 661.32C881.627 661.32 881.627 654.28 877.094 654.28C872.56 654.28 872.56 661.32 877.094 661.32Z" fill="black"/>
<path d="M876.685 672.468C881.219 672.468 881.219 665.428 876.685 665.428C872.152 665.428 872.152 672.468 876.685 672.468Z" fill="black"/>
<path d="M877.555 685.249C882.088 685.249 882.088 678.208 877.555 678.208C873.021 678.208 873.021 685.249 877.555 685.249Z" fill="black"/>
<path d="M877.634 697.181C882.167 697.181 882.167 690.14 877.634 690.14C873.1 690.14 873.1 697.181 877.634 697.181Z" fill="black"/>
<path d="M877.637 709.341C882.17 709.341 882.17 702.301 877.637 702.301C873.103 702.301 873.103 709.341 877.637 709.341Z" fill="black"/>
<path d="M887.546 619.039C892.08 619.039 892.08 611.999 887.546 611.999C883.012 611.999 883.012 619.039 887.546 619.039Z" fill="black"/>
<path d="M888.412 631.839C892.946 631.839 892.946 624.798 888.412 624.798C883.878 624.798 883.878 631.839 888.412 631.839Z" fill="black"/>
<path d="M888.498 643.772C893.032 643.772 893.032 636.732 888.498 636.732C883.964 636.732 883.964 643.772 888.498 643.772Z" fill="black"/>
<path d="M888.494 655.933C893.028 655.933 893.028 648.893 888.494 648.893C883.96 648.893 883.96 655.933 888.494 655.933Z" fill="black"/>
<path d="M888.105 667.061C892.639 667.061 892.639 660.021 888.105 660.021C883.572 660.021 883.572 667.061 888.105 667.061Z" fill="black"/>
<path d="M888.948 679.861C893.482 679.861 893.482 672.821 888.948 672.821C884.414 672.821 884.414 679.861 888.948 679.861Z" fill="black"/>
<path d="M889.042 691.795C893.576 691.795 893.576 684.755 889.042 684.755C884.508 684.755 884.508 691.795 889.042 691.795Z" fill="black"/>
<path d="M889.038 703.954C893.572 703.954 893.572 696.913 889.038 696.913C884.504 696.913 884.504 703.954 889.038 703.954Z" fill="black"/>
<path d="M900.049 612.02C904.582 612.02 904.582 604.98 900.049 604.98C895.515 604.98 895.515 612.02 900.049 612.02Z" fill="black"/>
<path d="M900.891 624.82C905.425 624.82 905.425 617.78 900.891 617.78C896.358 617.78 896.358 624.82 900.891 624.82Z" fill="black"/>
<path d="M900.985 636.754C905.519 636.754 905.519 629.714 900.985 629.714C896.452 629.714 896.452 636.754 900.985 636.754Z" fill="black"/>
<path d="M900.981 648.914C905.515 648.914 905.515 641.874 900.981 641.874C896.448 641.874 896.448 648.914 900.981 648.914Z" fill="black"/>
<path d="M900.593 660.041C905.126 660.041 905.126 653.001 900.593 653.001C896.059 653.001 896.059 660.041 900.593 660.041Z" fill="black"/>
<path d="M901.459 672.841C905.993 672.841 905.993 665.801 901.459 665.801C896.925 665.801 896.925 672.841 901.459 672.841Z" fill="black"/>
<path d="M901.545 684.776C906.079 684.776 906.079 677.736 901.545 677.736C897.011 677.736 897.011 684.776 901.545 684.776Z" fill="black"/>
<path d="M901.541 696.936C906.075 696.936 906.075 689.896 901.541 689.896C897.007 689.896 897.007 696.936 901.541 696.936Z" fill="black"/>
<path d="M913.073 597.462C917.607 597.462 917.607 590.422 913.073 590.422C908.539 590.422 908.539 597.462 913.073 597.462Z" fill="black"/>
<path d="M913.942 610.243C918.476 610.243 918.476 603.202 913.942 603.202C909.409 603.202 909.409 610.243 913.942 610.243Z" fill="black"/>
<path d="M914.021 622.175C918.555 622.175 918.555 615.134 914.021 615.134C909.488 615.134 909.488 622.175 914.021 622.175Z" fill="black"/>
<path d="M914.024 634.335C918.558 634.335 918.558 627.295 914.024 627.295C909.491 627.295 909.491 634.335 914.024 634.335Z" fill="black"/>
<path d="M913.633 645.484C918.166 645.484 918.166 638.444 913.633 638.444C909.099 638.444 909.099 645.484 913.633 645.484Z" fill="black"/>
<path d="M914.478 658.264C919.012 658.264 919.012 651.223 914.478 651.223C909.945 651.223 909.945 658.264 914.478 658.264Z" fill="black"/>
<path d="M914.581 670.196C919.115 670.196 919.115 663.156 914.581 663.156C910.047 663.156 910.047 670.196 914.581 670.196Z" fill="black"/>
<path d="M914.584 682.357C919.118 682.357 919.118 675.317 914.584 675.317C910.05 675.317 910.05 682.357 914.584 682.357Z" fill="black"/>
<path d="M925.596 571.016C930.129 571.016 930.129 563.975 925.596 563.975C921.062 563.975 921.062 571.016 925.596 571.016Z" fill="black"/>
<path d="M926.438 583.815C930.972 583.815 930.972 576.775 926.438 576.775C921.905 576.775 921.905 583.815 926.438 583.815Z" fill="black"/>
<path d="M926.548 595.748C931.081 595.748 931.081 588.708 926.548 588.708C922.014 588.708 922.014 595.748 926.548 595.748Z" fill="black"/>
<path d="M926.544 607.908C931.078 607.908 931.078 600.868 926.544 600.868C922.01 600.868 922.01 607.908 926.544 607.908Z" fill="black"/>
<path d="M926.124 619.037C930.658 619.037 930.658 611.996 926.124 611.996C921.59 611.996 921.59 619.037 926.124 619.037Z" fill="black"/>
<path d="M926.99 631.837C931.524 631.837 931.524 624.797 926.99 624.797C922.456 624.797 922.456 631.837 926.99 631.837Z" fill="black"/>
<path d="M927.076 643.771C931.61 643.771 931.61 636.73 927.076 636.73C922.542 636.73 922.542 643.771 927.076 643.771Z" fill="black"/>
<path d="M927.072 655.928C931.606 655.928 931.606 648.888 927.072 648.888C922.538 648.888 922.538 655.928 927.072 655.928Z" fill="black"/>
<path d="M939.171 565.628C943.705 565.628 943.705 558.587 939.171 558.587C934.637 558.587 934.637 565.628 939.171 565.628Z" fill="black"/>
<path d="M940.016 578.406C944.55 578.406 944.55 571.366 940.016 571.366C935.483 571.366 935.483 578.406 940.016 578.406Z" fill="black"/>
<path d="M940.119 590.34C944.653 590.34 944.653 583.3 940.119 583.3C935.585 583.3 935.585 590.34 940.119 590.34Z" fill="black"/>
<path d="M940.122 602.503C944.656 602.503 944.656 595.462 940.122 595.462C935.588 595.462 935.588 602.503 940.122 602.503Z" fill="black"/>
<path d="M939.707 613.647C944.241 613.647 944.241 606.607 939.707 606.607C935.173 606.607 935.173 613.647 939.707 613.647Z" fill="black"/>
<path d="M940.576 626.427C945.11 626.427 945.11 619.387 940.576 619.387C936.042 619.387 936.042 626.427 940.576 626.427Z" fill="black"/>
<path d="M940.655 638.357C945.189 638.357 945.189 631.317 940.655 631.317C936.121 631.317 936.121 638.357 940.655 638.357Z" fill="black"/>
<path d="M940.658 650.52C945.192 650.52 945.192 643.479 940.658 643.479C936.124 643.479 936.124 650.52 940.658 650.52Z" fill="black"/>
<path d="M950.57 547.808C955.104 547.808 955.104 540.768 950.57 540.768C946.036 540.768 946.036 547.808 950.57 547.808Z" fill="black"/>
<path d="M951.436 560.607C955.97 560.607 955.97 553.567 951.436 553.567C946.903 553.567 946.903 560.607 951.436 560.607Z" fill="black"/>
<path d="M951.522 572.545C956.056 572.545 956.056 565.504 951.522 565.504C946.989 565.504 946.989 572.545 951.522 572.545Z" fill="black"/>
<path d="M951.518 584.702C956.052 584.702 956.052 577.662 951.518 577.662C946.985 577.662 946.985 584.702 951.518 584.702Z" fill="black"/>
<path d="M951.122 595.833C955.656 595.833 955.656 588.793 951.122 588.793C946.588 588.793 946.588 595.833 951.122 595.833Z" fill="black"/>
<path d="M951.988 608.633C956.522 608.633 956.522 601.593 951.988 601.593C947.454 601.593 947.454 608.633 951.988 608.633Z" fill="black"/>
<path d="M952.074 620.568C956.608 620.568 956.608 613.528 952.074 613.528C947.54 613.528 947.54 620.568 952.074 620.568Z" fill="black"/>
<path d="M952.07 632.727C956.604 632.727 956.604 625.687 952.07 625.687C947.536 625.687 947.536 632.727 952.07 632.727Z" fill="black"/>
<path d="M962.536 537.572C967.07 537.572 967.07 530.532 962.536 530.532C958.002 530.532 958.002 537.572 962.536 537.572Z" fill="black"/>
<path d="M963.382 550.353C967.915 550.353 967.915 543.313 963.382 543.313C958.848 543.313 958.848 550.353 963.382 550.353Z" fill="black"/>
<path d="M963.46 562.285C967.994 562.285 967.994 555.245 963.46 555.245C958.926 555.245 958.926 562.285 963.46 562.285Z" fill="black"/>
<path d="M963.464 574.446C967.997 574.446 967.997 567.406 963.464 567.406C958.93 567.406 958.93 574.446 963.464 574.446Z" fill="black"/>
<path d="M963.073 585.59C967.607 585.59 967.607 578.549 963.073 578.549C958.539 578.549 958.539 585.59 963.073 585.59Z" fill="black"/>
<path d="M963.942 598.37C968.476 598.37 968.476 591.33 963.942 591.33C959.409 591.33 959.409 598.37 963.942 598.37Z" fill="black"/>
<path d="M964.021 610.302C968.555 610.302 968.555 603.262 964.021 603.262C959.488 603.262 959.488 610.302 964.021 610.302Z" fill="black"/>
<path d="M964.024 622.463C968.558 622.463 968.558 615.422 964.024 615.422C959.491 615.422 959.491 622.463 964.024 622.463Z" fill="black"/>
<path d="M975.022 537.569C979.556 537.569 979.556 530.529 975.022 530.529C970.489 530.529 970.489 537.569 975.022 537.569Z" fill="black"/>
<path d="M975.891 550.349C980.425 550.349 980.425 543.308 975.891 543.308C971.358 543.308 971.358 550.349 975.891 550.349Z" fill="black"/>
<path d="M975.971 562.282C980.504 562.282 980.504 555.241 975.971 555.241C971.437 555.241 971.437 562.282 975.971 562.282Z" fill="black"/>
<path d="M975.974 574.442C980.507 574.442 980.507 567.402 975.974 567.402C971.44 567.402 971.44 574.442 975.974 574.442Z" fill="black"/>
<path d="M975.558 585.592C980.092 585.592 980.092 578.552 975.558 578.552C971.025 578.552 971.025 585.592 975.558 585.592Z" fill="black"/>
<path d="M976.428 598.373C980.961 598.373 980.961 591.333 976.428 591.333C971.894 591.333 971.894 598.373 976.428 598.373Z" fill="black"/>
<path d="M976.507 610.303C981.04 610.303 981.04 603.262 976.507 603.262C971.973 603.262 971.973 610.303 976.507 610.303Z" fill="black"/>
<path d="M976.51 622.465C981.043 622.465 981.043 615.425 976.51 615.425C971.976 615.425 971.976 622.465 976.51 622.465Z" fill="black"/>
<path d="M989.147 537.568C993.681 537.568 993.681 530.528 989.147 530.528C984.614 530.528 984.614 537.568 989.147 537.568Z" fill="black"/>
<path d="M990.016 550.349C994.55 550.349 994.55 543.308 990.016 543.308C985.483 543.308 985.483 550.349 990.016 550.349Z" fill="black"/>
<path d="M990.096 562.281C994.629 562.281 994.629 555.24 990.096 555.24C985.562 555.24 985.562 562.281 990.096 562.281Z" fill="black"/>
<path d="M990.099 574.443C994.632 574.443 994.632 567.403 990.099 567.403C985.565 567.403 985.565 574.443 990.099 574.443Z" fill="black"/>
<path d="M989.7 585.59C994.234 585.59 994.234 578.55 989.7 578.55C985.166 578.55 985.166 585.59 989.7 585.59Z" fill="black"/>
<path d="M990.546 598.371C995.08 598.371 995.08 591.33 990.546 591.33C986.012 591.33 986.012 598.371 990.546 598.371Z" fill="black"/>
<path d="M990.648 610.302C995.182 610.302 995.182 603.262 990.648 603.262C986.115 603.262 986.115 610.302 990.648 610.302Z" fill="black"/>
<path d="M990.651 622.463C995.185 622.463 995.185 615.423 990.651 615.423C986.118 615.423 986.118 622.463 990.651 622.463Z" fill="black"/>
<path d="M1004.37 537.57C1008.9 537.57 1008.9 530.53 1004.37 530.53C999.833 530.53 999.833 537.57 1004.37 537.57Z" fill="black"/>
<path d="M1005.21 550.352C1009.75 550.352 1009.75 543.312 1005.21 543.312C1000.68 543.312 1000.68 550.352 1005.21 550.352Z" fill="black"/>
<path d="M1005.29 562.285C1009.82 562.285 1009.82 555.245 1005.29 555.245C1000.76 555.245 1000.76 562.285 1005.29 562.285Z" fill="black"/>
<path d="M1005.29 574.445C1009.83 574.445 1009.83 567.405 1005.29 567.405C1000.76 567.405 1000.76 574.445 1005.29 574.445Z" fill="black"/>
<path d="M1004.9 585.592C1009.43 585.592 1009.43 578.552 1004.9 578.552C1000.36 578.552 1000.36 585.592 1004.9 585.592Z" fill="black"/>
<path d="M1005.76 598.372C1010.3 598.372 1010.3 591.332 1005.76 591.332C1001.23 591.332 1001.23 598.372 1005.76 598.372Z" fill="black"/>
<path d="M1005.84 610.302C1010.38 610.302 1010.38 603.262 1005.84 603.262C1001.31 603.262 1001.31 610.302 1005.84 610.302Z" fill="black"/>
<path d="M1005.85 622.465C1010.38 622.465 1010.38 615.425 1005.85 615.425C1001.31 615.425 1001.31 622.465 1005.85 622.465Z" fill="black"/>
<path d="M1022.3 537.571C1026.84 537.571 1026.84 530.531 1022.3 530.531C1017.77 530.531 1017.77 537.571 1022.3 537.571Z" fill="black"/>
<path d="M1023.15 550.35C1027.68 550.35 1027.68 543.31 1023.15 543.31C1018.62 543.31 1018.62 550.35 1023.15 550.35Z" fill="black"/>
<path d="M1023.23 562.281C1027.76 562.281 1027.76 555.241 1023.23 555.241C1018.7 555.241 1018.7 562.281 1023.23 562.281Z" fill="black"/>
<path d="M1023.23 574.445C1027.77 574.445 1027.77 567.405 1023.23 567.405C1018.7 567.405 1018.7 574.445 1023.23 574.445Z" fill="black"/>
<path d="M1022.83 585.591C1027.37 585.591 1027.37 578.55 1022.83 578.55C1018.3 578.55 1018.3 585.591 1022.83 585.591Z" fill="black"/>
<path d="M1023.7 598.372C1028.24 598.372 1028.24 591.332 1023.7 591.332C1019.17 591.332 1019.17 598.372 1023.7 598.372Z" fill="black"/>
<path d="M1023.78 610.305C1028.31 610.305 1028.31 603.265 1023.78 603.265C1019.25 603.265 1019.25 610.305 1023.78 610.305Z" fill="black"/>
<path d="M1023.79 622.464C1028.32 622.464 1028.32 615.424 1023.79 615.424C1019.25 615.424 1019.25 622.464 1023.79 622.464Z" fill="black"/>
<path d="M1035.32 537.57C1039.85 537.57 1039.85 530.53 1035.32 530.53C1030.79 530.53 1030.79 537.57 1035.32 537.57Z" fill="black"/>
<path d="M1036.19 550.35C1040.72 550.35 1040.72 543.31 1036.19 543.31C1031.65 543.31 1031.65 550.35 1036.19 550.35Z" fill="black"/>
<path d="M1036.27 562.282C1040.8 562.282 1040.8 555.242 1036.27 555.242C1031.73 555.242 1031.73 562.282 1036.27 562.282Z" fill="black"/>
<path d="M1036.27 574.445C1040.8 574.445 1040.8 567.405 1036.27 567.405C1031.74 567.405 1031.74 574.445 1036.27 574.445Z" fill="black"/>
<path d="M1035.88 585.589C1040.41 585.589 1040.41 578.549 1035.88 578.549C1031.35 578.549 1031.35 585.589 1035.88 585.589Z" fill="black"/>
<path d="M1036.72 598.37C1041.26 598.37 1041.26 591.33 1036.72 591.33C1032.19 591.33 1032.19 598.37 1036.72 598.37Z" fill="black"/>
<path d="M1036.83 610.301C1041.36 610.301 1041.36 603.261 1036.83 603.261C1032.29 603.261 1032.29 610.301 1036.83 610.301Z" fill="black"/>
<path d="M1036.83 622.462C1041.36 622.462 1041.36 615.422 1036.83 615.422C1032.3 615.422 1032.3 622.462 1036.83 622.462Z" fill="black"/>
<path d="M1053.26 555.903C1057.79 555.903 1057.79 548.863 1053.26 548.863C1048.72 548.863 1048.72 555.903 1053.26 555.903Z" fill="black"/>
<path d="M1054.12 568.703C1058.66 568.703 1058.66 561.663 1054.12 561.663C1049.59 561.663 1049.59 568.703 1054.12 568.703Z" fill="black"/>
<path d="M1054.21 580.638C1058.74 580.638 1058.74 573.598 1054.21 573.598C1049.67 573.598 1049.67 580.638 1054.21 580.638Z" fill="black"/>
<path d="M1054.2 592.798C1058.74 592.798 1058.74 585.757 1054.2 585.757C1049.67 585.757 1049.67 592.798 1054.2 592.798Z" fill="black"/>
<path d="M1053.82 603.925C1058.35 603.925 1058.35 596.885 1053.82 596.885C1049.28 596.885 1049.28 603.925 1053.82 603.925Z" fill="black"/>
<path d="M1054.66 616.725C1059.19 616.725 1059.19 609.685 1054.66 609.685C1050.12 609.685 1050.12 616.725 1054.66 616.725Z" fill="black"/>
<path d="M1054.77 628.66C1059.3 628.66 1059.3 621.62 1054.77 621.62C1050.23 621.62 1050.23 628.66 1054.77 628.66Z" fill="black"/>
<path d="M1054.76 640.819C1059.3 640.819 1059.3 633.778 1054.76 633.778C1050.23 633.778 1050.23 640.819 1054.76 640.819Z" fill="black"/>
<path d="M1070.64 560.22C1075.17 560.22 1075.17 553.18 1070.64 553.18C1066.11 553.18 1066.11 560.22 1070.64 560.22Z" fill="black"/>
<path d="M1071.51 573.02C1076.04 573.02 1076.04 565.979 1071.51 565.979C1066.97 565.979 1066.97 573.02 1071.51 573.02Z" fill="black"/>
<path d="M1071.59 584.953C1076.13 584.953 1076.13 577.913 1071.59 577.913C1067.06 577.913 1067.06 584.953 1071.59 584.953Z" fill="black"/>
<path d="M1071.59 597.114C1076.12 597.114 1076.12 590.074 1071.59 590.074C1067.05 590.074 1067.05 597.114 1071.59 597.114Z" fill="black"/>
<path d="M1071.18 608.237C1075.71 608.237 1075.71 601.196 1071.18 601.196C1066.64 601.196 1066.64 608.237 1071.18 608.237Z" fill="black"/>
<path d="M1072.04 621.036C1076.58 621.036 1076.58 613.996 1072.04 613.996C1067.51 613.996 1067.51 621.036 1072.04 621.036Z" fill="black"/>
<path d="M1072.13 632.969C1076.66 632.969 1076.66 625.929 1072.13 625.929C1067.6 625.929 1067.6 632.969 1072.13 632.969Z" fill="black"/>
<path d="M1072.12 645.131C1076.66 645.131 1076.66 638.091 1072.12 638.091C1067.59 638.091 1067.59 645.131 1072.12 645.131Z" fill="black"/>
<path d="M1086.94 805.739C1091.48 805.739 1091.48 798.699 1086.94 798.699C1082.41 798.699 1082.41 805.739 1086.94 805.739Z" fill="black"/>
<path d="M1087.81 818.519C1092.35 818.519 1092.35 811.479 1087.81 811.479C1083.28 811.479 1083.28 818.519 1087.81 818.519Z" fill="black"/>
<path d="M1087.89 830.451C1092.43 830.451 1092.43 823.411 1087.89 823.411C1083.36 823.411 1083.36 830.451 1087.89 830.451Z" fill="black"/>
<path d="M1087.89 842.612C1092.43 842.612 1092.43 835.572 1087.89 835.572C1083.36 835.572 1083.36 842.612 1087.89 842.612Z" fill="black"/>
<path d="M1071.73 818.682C1076.27 818.682 1076.27 811.642 1071.73 811.642C1067.2 811.642 1067.2 818.682 1071.73 818.682Z" fill="black"/>
<path d="M1072.58 831.462C1077.11 831.462 1077.11 824.421 1072.58 824.421C1068.05 824.421 1068.05 831.462 1072.58 831.462Z" fill="black"/>
<path d="M1072.68 843.395C1077.21 843.395 1077.21 836.355 1072.68 836.355C1068.15 836.355 1068.15 843.395 1072.68 843.395Z" fill="black"/>
<path d="M1072.68 855.557C1077.22 855.557 1077.22 848.517 1072.68 848.517C1068.15 848.517 1068.15 855.557 1072.68 855.557Z" fill="black"/>
<path d="M1058.69 818.684C1063.22 818.684 1063.22 811.644 1058.69 811.644C1054.15 811.644 1054.15 818.684 1058.69 818.684Z" fill="black"/>
<path d="M1059.56 831.465C1064.09 831.465 1064.09 824.424 1059.56 824.424C1055.02 824.424 1055.02 831.465 1059.56 831.465Z" fill="black"/>
<path d="M1059.63 843.397C1064.17 843.397 1064.17 836.356 1059.63 836.356C1055.1 836.356 1055.1 843.397 1059.63 843.397Z" fill="black"/>
<path d="M1059.64 855.559C1064.17 855.559 1064.17 848.519 1059.64 848.519C1055.1 848.519 1055.1 855.559 1059.64 855.559Z" fill="black"/>
<path d="M1045.11 819.219C1049.64 819.219 1049.64 812.178 1045.11 812.178C1040.58 812.178 1040.58 819.219 1045.11 819.219Z" fill="black"/>
<path d="M1045.98 832.018C1050.51 832.018 1050.51 824.977 1045.98 824.977C1041.44 824.977 1041.44 832.018 1045.98 832.018Z" fill="black"/>
<path d="M1046.06 843.951C1050.6 843.951 1050.6 836.911 1046.06 836.911C1041.53 836.911 1041.53 843.951 1046.06 843.951Z" fill="black"/>
<path d="M1046.06 856.111C1050.59 856.111 1050.59 849.071 1046.06 849.071C1041.52 849.071 1041.52 856.111 1046.06 856.111Z" fill="black"/>
<path d="M1033.16 819.217C1037.69 819.217 1037.69 812.177 1033.16 812.177C1028.63 812.177 1028.63 819.217 1033.16 819.217Z" fill="black"/>
<path d="M1034.03 832.017C1038.56 832.017 1038.56 824.977 1034.03 824.977C1029.49 824.977 1029.49 832.017 1034.03 832.017Z" fill="black"/>
<path d="M1034.11 843.952C1038.64 843.952 1038.64 836.912 1034.11 836.912C1029.58 836.912 1029.58 843.952 1034.11 843.952Z" fill="black"/>
<path d="M1034.11 856.112C1038.64 856.112 1038.64 849.071 1034.11 849.071C1029.57 849.071 1029.57 856.112 1034.11 856.112Z" fill="black"/>
<path d="M1019.03 817.073C1023.56 817.073 1023.56 810.032 1019.03 810.032C1014.49 810.032 1014.49 817.073 1019.03 817.073Z" fill="black"/>
<path d="M1019.9 829.851C1024.43 829.851 1024.43 822.811 1019.9 822.811C1015.36 822.811 1015.36 829.851 1019.9 829.851Z" fill="black"/>
<path d="M1019.97 841.783C1024.51 841.783 1024.51 834.743 1019.97 834.743C1015.44 834.743 1015.44 841.783 1019.97 841.783Z" fill="black"/>
<path d="M1019.98 853.945C1024.51 853.945 1024.51 846.905 1019.98 846.905C1015.44 846.905 1015.44 853.945 1019.98 853.945Z" fill="black"/>
<path d="M914.176 796.013C918.709 796.013 918.709 788.973 914.176 788.973C909.642 788.973 909.642 796.013 914.176 796.013Z" fill="black"/>
<path d="M915.042 808.813C919.576 808.813 919.576 801.773 915.042 801.773C910.508 801.773 910.508 808.813 915.042 808.813Z" fill="black"/>
<path d="M915.128 820.746C919.662 820.746 919.662 813.706 915.128 813.706C910.594 813.706 910.594 820.746 915.128 820.746Z" fill="black"/>
<path d="M915.124 832.908C919.658 832.908 919.658 825.867 915.124 825.867C910.59 825.867 910.59 832.908 915.124 832.908Z" fill="black"/>
<path d="M925.031 796.013C929.565 796.013 929.565 788.973 925.031 788.973C920.497 788.973 920.497 796.013 925.031 796.013Z" fill="black"/>
<path d="M925.897 808.813C930.431 808.813 930.431 801.773 925.897 801.773C921.364 801.773 921.364 808.813 925.897 808.813Z" fill="black"/>
<path d="M925.983 820.746C930.517 820.746 930.517 813.706 925.983 813.706C921.45 813.706 921.45 820.746 925.983 820.746Z" fill="black"/>
<path d="M925.979 832.908C930.513 832.908 930.513 825.867 925.979 825.867C921.446 825.867 921.446 832.908 925.979 832.908Z" fill="black"/>
<path d="M938.604 796.012C943.138 796.012 943.138 788.972 938.604 788.972C934.071 788.972 934.071 796.012 938.604 796.012Z" fill="black"/>
<path d="M939.471 808.812C944.004 808.812 944.004 801.771 939.471 801.771C934.937 801.771 934.937 808.812 939.471 808.812Z" fill="black"/>
<path d="M939.557 820.745C944.09 820.745 944.09 813.705 939.557 813.705C935.023 813.705 935.023 820.745 939.557 820.745Z" fill="black"/>
<path d="M939.553 832.906C944.086 832.906 944.086 825.866 939.553 825.866C935.019 825.866 935.019 832.906 939.553 832.906Z" fill="black"/>
<path d="M950.035 796.012C954.569 796.012 954.569 788.972 950.035 788.972C945.501 788.972 945.501 796.012 950.035 796.012Z" fill="black"/>
<path d="M950.901 808.812C955.435 808.812 955.435 801.771 950.901 801.771C946.368 801.771 946.368 808.812 950.901 808.812Z" fill="black"/>
<path d="M950.987 820.745C955.521 820.745 955.521 813.705 950.987 813.705C946.453 813.705 946.453 820.745 950.987 820.745Z" fill="black"/>
<path d="M950.983 832.904C955.517 832.904 955.517 825.864 950.983 825.864C946.45 825.864 946.45 832.904 950.983 832.904Z" fill="black"/>
<path d="M963.6 796.012C968.134 796.012 968.134 788.971 963.6 788.971C959.067 788.971 959.067 796.012 963.6 796.012Z" fill="black"/>
<path d="M964.467 808.811C969 808.811 969 801.771 964.467 801.771C959.933 801.771 959.933 808.811 964.467 808.811Z" fill="black"/>
<path d="M964.553 820.746C969.086 820.746 969.086 813.706 964.553 813.706C960.019 813.706 960.019 820.746 964.553 820.746Z" fill="black"/>
<path d="M964.549 832.905C969.082 832.905 969.082 825.865 964.549 825.865C960.015 825.865 960.015 832.905 964.549 832.905Z" fill="black"/>
<path d="M979.374 808.442C983.908 808.442 983.908 801.402 979.374 801.402C974.84 801.402 974.84 808.442 979.374 808.442Z" fill="black"/>
<path d="M980.22 821.222C984.753 821.222 984.753 814.182 980.22 814.182C975.686 814.182 975.686 821.222 980.22 821.222Z" fill="black"/>
<path d="M980.322 833.154C984.856 833.154 984.856 826.114 980.322 826.114C975.788 826.114 975.788 833.154 980.322 833.154Z" fill="black"/>
<path d="M980.325 845.315C984.859 845.315 984.859 838.275 980.325 838.275C975.791 838.275 975.791 845.315 980.325 845.315Z" fill="black"/>
<path d="M991.86 808.439C996.394 808.439 996.394 801.399 991.86 801.399C987.327 801.399 987.327 808.439 991.86 808.439Z" fill="black"/>
<path d="M992.729 821.219C997.263 821.219 997.263 814.179 992.729 814.179C988.196 814.179 988.196 821.219 992.729 821.219Z" fill="black"/>
<path d="M992.808 833.151C997.342 833.151 997.342 826.111 992.808 826.111C988.275 826.111 988.275 833.151 992.808 833.151Z" fill="black"/>
<path d="M992.811 845.312C997.345 845.312 997.345 838.272 992.811 838.272C988.278 838.272 988.278 845.312 992.811 845.312Z" fill="black"/>
<path d="M1005.44 808.445C1009.98 808.445 1009.98 801.405 1005.44 801.405C1000.91 801.405 1000.91 808.445 1005.44 808.445Z" fill="black"/>
<path d="M1006.31 821.225C1010.84 821.225 1010.84 814.185 1006.31 814.185C1001.78 814.185 1001.78 821.225 1006.31 821.225Z" fill="black"/>
<path d="M1006.39 833.157C1010.92 833.157 1010.92 826.117 1006.39 826.117C1001.86 826.117 1001.86 833.157 1006.39 833.157Z" fill="black"/>
<path d="M1006.39 845.32C1010.93 845.32 1010.93 838.28 1006.39 838.28C1001.86 838.28 1001.86 845.32 1006.39 845.32Z" fill="black"/>
<path d="M1085.86 565.628C1090.4 565.628 1090.4 558.588 1085.86 558.588C1081.33 558.588 1081.33 565.628 1085.86 565.628Z" fill="black"/>
<path d="M1086.73 578.409C1091.27 578.409 1091.27 571.368 1086.73 571.368C1082.2 571.368 1082.2 578.409 1086.73 578.409Z" fill="black"/>
<path d="M1086.81 590.339C1091.35 590.339 1091.35 583.298 1086.81 583.298C1082.28 583.298 1082.28 590.339 1086.81 590.339Z" fill="black"/>
<path d="M1086.81 602.503C1091.35 602.503 1091.35 595.463 1086.81 595.463C1082.28 595.463 1082.28 602.503 1086.81 602.503Z" fill="black"/>
<path d="M1086.41 613.65C1090.94 613.65 1090.94 606.609 1086.41 606.609C1081.87 606.609 1081.87 613.65 1086.41 613.65Z" fill="black"/>
<path d="M1087.25 626.429C1091.79 626.429 1091.79 619.389 1087.25 619.389C1082.72 619.389 1082.72 626.429 1087.25 626.429Z" fill="black"/>
<path d="M1087.34 638.362C1091.87 638.362 1091.87 631.322 1087.34 631.322C1082.8 631.322 1082.8 638.362 1087.34 638.362Z" fill="black"/>
<path d="M1087.34 650.524C1091.88 650.524 1091.88 643.484 1087.34 643.484C1082.81 643.484 1082.81 650.524 1087.34 650.524Z" fill="black"/>
<path d="M1097.27 563.996C1101.81 563.996 1101.81 556.956 1097.27 556.956C1092.74 556.956 1092.74 563.996 1097.27 563.996Z" fill="black"/>
<path d="M1098.14 576.795C1102.67 576.795 1102.67 569.755 1098.14 569.755C1093.6 569.755 1093.6 576.795 1098.14 576.795Z" fill="black"/>
<path d="M1098.23 588.728C1102.76 588.728 1102.76 581.688 1098.23 581.688C1093.69 581.688 1093.69 588.728 1098.23 588.728Z" fill="black"/>
<path d="M1098.22 600.89C1102.75 600.89 1102.75 593.849 1098.22 593.849C1093.69 593.849 1093.69 600.89 1098.22 600.89Z" fill="black"/>
<path d="M1097.8 612.018C1102.34 612.018 1102.34 604.978 1097.8 604.978C1093.27 604.978 1093.27 612.018 1097.8 612.018Z" fill="black"/>
<path d="M1098.67 624.817C1103.2 624.817 1103.2 617.777 1098.67 617.777C1094.14 617.777 1094.14 624.817 1098.67 624.817Z" fill="black"/>
<path d="M1098.76 636.753C1103.29 636.753 1103.29 629.712 1098.76 629.712C1094.22 629.712 1094.22 636.753 1098.76 636.753Z" fill="black"/>
<path d="M1098.75 648.912C1103.29 648.912 1103.29 641.872 1098.75 641.872C1094.22 641.872 1094.22 648.912 1098.75 648.912Z" fill="black"/>
<path d="M1114.11 594.219C1118.64 594.219 1118.64 587.179 1114.11 587.179C1109.58 587.179 1109.58 594.219 1114.11 594.219Z" fill="black"/>
<path d="M1114.98 607C1119.51 607 1119.51 599.959 1114.98 599.959C1110.44 599.959 1110.44 607 1114.98 607Z" fill="black"/>
<path d="M1115.06 618.931C1119.59 618.931 1119.59 611.891 1115.06 611.891C1110.52 611.891 1110.52 618.931 1115.06 618.931Z" fill="black"/>
<path d="M1115.06 631.094C1119.59 631.094 1119.59 624.054 1115.06 624.054C1110.53 624.054 1110.53 631.094 1115.06 631.094Z" fill="black"/>
<path d="M1114.66 642.242C1119.19 642.242 1119.19 635.202 1114.66 635.202C1110.13 635.202 1110.13 642.242 1114.66 642.242Z" fill="black"/>
<path d="M1115.51 655.021C1120.04 655.021 1120.04 647.981 1115.51 647.981C1110.97 647.981 1110.97 655.021 1115.51 655.021Z" fill="black"/>
<path d="M1115.59 666.954C1120.13 666.954 1120.13 659.913 1115.59 659.913C1111.06 659.913 1111.06 666.954 1115.59 666.954Z" fill="black"/>
<path d="M1115.6 679.114C1120.13 679.114 1120.13 672.074 1115.6 672.074C1111.06 672.074 1111.06 679.114 1115.6 679.114Z" fill="black"/>
<path d="M1138.57 594.222C1143.1 594.222 1143.1 587.182 1138.57 587.182C1134.04 587.182 1134.04 594.222 1138.57 594.222Z" fill="black"/>
<path d="M1139.42 607.002C1143.95 607.002 1143.95 599.962 1139.42 599.962C1134.88 599.962 1134.88 607.002 1139.42 607.002Z" fill="black"/>
<path d="M1139.49 618.934C1144.03 618.934 1144.03 611.894 1139.49 611.894C1134.96 611.894 1134.96 618.934 1139.49 618.934Z" fill="black"/>
<path d="M1139.5 631.096C1144.03 631.096 1144.03 624.056 1139.5 624.056C1134.96 624.056 1134.96 631.096 1139.5 631.096Z" fill="black"/>
<path d="M1139.11 642.242C1143.65 642.242 1143.65 635.202 1139.11 635.202C1134.58 635.202 1134.58 642.242 1139.11 642.242Z" fill="black"/>
<path d="M1139.98 655.023C1144.52 655.023 1144.52 647.982 1139.98 647.982C1135.45 647.982 1135.45 655.023 1139.98 655.023Z" fill="black"/>
<path d="M1140.06 666.955C1144.6 666.955 1144.6 659.914 1140.06 659.914C1135.53 659.914 1135.53 666.955 1140.06 666.955Z" fill="black"/>
<path d="M1140.06 679.115C1144.6 679.115 1144.6 672.075 1140.06 672.075C1135.53 672.075 1135.53 679.115 1140.06 679.115Z" fill="black"/>
<path d="M1153.77 594.222C1158.31 594.222 1158.31 587.182 1153.77 587.182C1149.24 587.182 1149.24 594.222 1153.77 594.222Z" fill="black"/>
<path d="M1154.62 607.002C1159.15 607.002 1159.15 599.962 1154.62 599.962C1150.09 599.962 1150.09 607.002 1154.62 607.002Z" fill="black"/>
<path d="M1154.72 618.935C1159.26 618.935 1159.26 611.895 1154.72 611.895C1150.19 611.895 1150.19 618.935 1154.72 618.935Z" fill="black"/>
<path d="M1154.72 631.098C1159.26 631.098 1159.26 624.058 1154.72 624.058C1150.19 624.058 1150.19 631.098 1154.72 631.098Z" fill="black"/>
<path d="M1154.32 642.242C1158.85 642.242 1158.85 635.202 1154.32 635.202C1149.78 635.202 1149.78 642.242 1154.32 642.242Z" fill="black"/>
<path d="M1155.19 655.022C1159.72 655.022 1159.72 647.982 1155.19 647.982C1150.65 647.982 1150.65 655.022 1155.19 655.022Z" fill="black"/>
<path d="M1155.27 666.954C1159.8 666.954 1159.8 659.914 1155.27 659.914C1150.73 659.914 1150.73 666.954 1155.27 666.954Z" fill="black"/>
<path d="M1155.27 679.115C1159.8 679.115 1159.8 672.075 1155.27 672.075C1150.73 672.075 1150.73 679.115 1155.27 679.115Z" fill="black"/>
<path d="M1166.82 592.055C1171.35 592.055 1171.35 585.015 1166.82 585.015C1162.29 585.015 1162.29 592.055 1166.82 592.055Z" fill="black"/>
<path d="M1167.66 604.855C1172.2 604.855 1172.2 597.815 1167.66 597.815C1163.13 597.815 1163.13 604.855 1167.66 604.855Z" fill="black"/>
<path d="M1167.75 616.788C1172.28 616.788 1172.28 609.748 1167.75 609.748C1163.22 609.748 1163.22 616.788 1167.75 616.788Z" fill="black"/>
<path d="M1167.75 628.948C1172.28 628.948 1172.28 621.907 1167.75 621.907C1163.21 621.907 1163.21 628.948 1167.75 628.948Z" fill="black"/>
<path d="M1167.36 640.077C1171.89 640.077 1171.89 633.037 1167.36 633.037C1162.82 633.037 1162.82 640.077 1167.36 640.077Z" fill="black"/>
<path d="M1168.22 652.877C1172.76 652.877 1172.76 645.836 1168.22 645.836C1163.69 645.836 1163.69 652.877 1168.22 652.877Z" fill="black"/>
<path d="M1168.31 664.812C1172.84 664.812 1172.84 657.771 1168.31 657.771C1163.78 657.771 1163.78 664.812 1168.31 664.812Z" fill="black"/>
<path d="M1168.31 676.971C1172.84 676.971 1172.84 669.931 1168.31 669.931C1163.77 669.931 1163.77 676.971 1168.31 676.971Z" fill="black"/>
<path d="M1180.41 594.22C1184.94 594.22 1184.94 587.18 1180.41 587.18C1175.87 587.18 1175.87 594.22 1180.41 594.22Z" fill="black"/>
<path d="M1181.25 606.999C1185.79 606.999 1185.79 599.959 1181.25 599.959C1176.72 599.959 1176.72 606.999 1181.25 606.999Z" fill="black"/>
<path d="M1181.33 618.931C1185.87 618.931 1185.87 611.89 1181.33 611.89C1176.8 611.89 1176.8 618.931 1181.33 618.931Z" fill="black"/>
<path d="M1181.34 631.094C1185.87 631.094 1185.87 624.054 1181.34 624.054C1176.8 624.054 1176.8 631.094 1181.34 631.094Z" fill="black"/>
<path d="M1180.94 642.242C1185.48 642.242 1185.48 635.202 1180.94 635.202C1176.41 635.202 1176.41 642.242 1180.94 642.242Z" fill="black"/>
<path d="M1181.81 655.022C1186.35 655.022 1186.35 647.982 1181.81 647.982C1177.28 647.982 1177.28 655.022 1181.81 655.022Z" fill="black"/>
<path d="M1181.89 666.954C1186.43 666.954 1186.43 659.914 1181.89 659.914C1177.36 659.914 1177.36 666.954 1181.89 666.954Z" fill="black"/>
<path d="M1181.9 679.115C1186.43 679.115 1186.43 672.075 1181.9 672.075C1177.36 672.075 1177.36 679.115 1181.9 679.115Z" fill="black"/>
<path d="M1190.74 594.219C1195.27 594.219 1195.27 587.179 1190.74 587.179C1186.2 587.179 1186.2 594.219 1190.74 594.219Z" fill="black"/>
<path d="M1191.58 606.999C1196.12 606.999 1196.12 599.959 1191.58 599.959C1187.05 599.959 1187.05 606.999 1191.58 606.999Z" fill="black"/>
<path d="M1191.66 618.93C1196.19 618.93 1196.19 611.89 1191.66 611.89C1187.13 611.89 1187.13 618.93 1191.66 618.93Z" fill="black"/>
<path d="M1191.66 631.094C1196.2 631.094 1196.2 624.054 1191.66 624.054C1187.13 624.054 1187.13 631.094 1191.66 631.094Z" fill="black"/>
<path d="M1191.26 642.242C1195.8 642.242 1195.8 635.202 1191.26 635.202C1186.73 635.202 1186.73 642.242 1191.26 642.242Z" fill="black"/>
<path d="M1192.13 655.023C1196.67 655.023 1196.67 647.982 1192.13 647.982C1187.6 647.982 1187.6 655.023 1192.13 655.023Z" fill="black"/>
<path d="M1192.21 666.955C1196.75 666.955 1196.75 659.915 1192.21 659.915C1187.68 659.915 1187.68 666.955 1192.21 666.955Z" fill="black"/>
<path d="M1192.21 679.116C1196.75 679.116 1196.75 672.075 1192.21 672.075C1187.68 672.075 1187.68 679.116 1192.21 679.116Z" fill="black"/>
<path d="M1206.46 595.834C1211 595.834 1211 588.793 1206.46 588.793C1201.93 588.793 1201.93 595.834 1206.46 595.834Z" fill="black"/>
<path d="M1207.33 608.633C1211.86 608.633 1211.86 601.593 1207.33 601.593C1202.8 601.593 1202.8 608.633 1207.33 608.633Z" fill="black"/>
<path d="M1207.42 620.568C1211.95 620.568 1211.95 613.528 1207.42 613.528C1202.88 613.528 1202.88 620.568 1207.42 620.568Z" fill="black"/>
<path d="M1207.41 632.728C1211.95 632.728 1211.95 625.688 1207.41 625.688C1202.88 625.688 1202.88 632.728 1207.41 632.728Z" fill="black"/>
<path d="M1207.01 643.853C1211.54 643.853 1211.54 636.813 1207.01 636.813C1202.47 636.813 1202.47 643.853 1207.01 643.853Z" fill="black"/>
<path d="M1207.87 656.654C1212.41 656.654 1212.41 649.614 1207.87 649.614C1203.34 649.614 1203.34 656.654 1207.87 656.654Z" fill="black"/>
<path d="M1207.96 668.588C1212.49 668.588 1212.49 661.548 1207.96 661.548C1203.43 661.548 1203.43 668.588 1207.96 668.588Z" fill="black"/>
<path d="M1207.96 680.747C1212.49 680.747 1212.49 673.707 1207.96 673.707C1203.42 673.707 1203.42 680.747 1207.96 680.747Z" fill="black"/>
<path d="M1216.26 595.83C1220.79 595.83 1220.79 588.79 1216.26 588.79C1211.73 588.79 1211.73 595.83 1216.26 595.83Z" fill="black"/>
<path d="M1217.1 608.629C1221.64 608.629 1221.64 601.589 1217.1 601.589C1212.57 601.589 1212.57 608.629 1217.1 608.629Z" fill="black"/>
<path d="M1217.21 620.566C1221.75 620.566 1221.75 613.526 1217.21 613.526C1212.68 613.526 1212.68 620.566 1217.21 620.566Z" fill="black"/>
<path d="M1217.21 632.724C1221.74 632.724 1221.74 625.683 1217.21 625.683C1212.68 625.683 1212.68 632.724 1217.21 632.724Z" fill="black"/>
<path d="M1216.8 643.853C1221.33 643.853 1221.33 636.813 1216.8 636.813C1212.27 636.813 1212.27 643.853 1216.8 643.853Z" fill="black"/>
<path d="M1217.67 656.653C1222.2 656.653 1222.2 649.612 1217.67 649.612C1213.13 649.612 1213.13 656.653 1217.67 656.653Z" fill="black"/>
<path d="M1217.75 668.586C1222.29 668.586 1222.29 661.546 1217.75 661.546C1213.22 661.546 1213.22 668.586 1217.75 668.586Z" fill="black"/>
<path d="M1217.75 680.747C1222.28 680.747 1222.28 673.707 1217.75 673.707C1213.21 673.707 1213.21 680.747 1217.75 680.747Z" fill="black"/>
<path d="M1233.1 595.832C1237.63 595.832 1237.63 588.792 1233.1 588.792C1228.56 588.792 1228.56 595.832 1233.1 595.832Z" fill="black"/>
<path d="M1233.96 608.633C1238.5 608.633 1238.5 601.593 1233.96 601.593C1229.43 601.593 1229.43 608.633 1233.96 608.633Z" fill="black"/>
<path d="M1234.05 620.568C1238.58 620.568 1238.58 613.528 1234.05 613.528C1229.52 613.528 1229.52 620.568 1234.05 620.568Z" fill="black"/>
<path d="M1234.05 632.727C1238.58 632.727 1238.58 625.687 1234.05 625.687C1229.51 625.687 1229.51 632.727 1234.05 632.727Z" fill="black"/>
<path d="M1233.63 643.853C1238.17 643.853 1238.17 636.813 1233.63 636.813C1229.1 636.813 1229.1 643.853 1233.63 643.853Z" fill="black"/>
<path d="M1234.5 656.653C1239.03 656.653 1239.03 649.613 1234.5 649.613C1229.97 649.613 1229.97 656.653 1234.5 656.653Z" fill="black"/>
<path d="M1234.59 668.586C1239.12 668.586 1239.12 661.546 1234.59 661.546C1230.05 661.546 1230.05 668.586 1234.59 668.586Z" fill="black"/>
<path d="M1234.58 680.748C1239.12 680.748 1239.12 673.707 1234.58 673.707C1230.05 673.707 1230.05 680.748 1234.58 680.748Z" fill="black"/>
<path d="M901.672 791.159C906.205 791.159 906.205 784.119 901.672 784.119C897.138 784.119 897.138 791.159 901.672 791.159Z" fill="black"/>
<path d="M902.515 803.959C907.048 803.959 907.048 796.919 902.515 796.919C897.981 796.919 897.981 803.959 902.515 803.959Z" fill="black"/>
<path d="M902.624 815.894C907.158 815.894 907.158 808.854 902.624 808.854C898.09 808.854 898.09 815.894 902.624 815.894Z" fill="black"/>
<path d="M902.62 828.054C907.154 828.054 907.154 821.013 902.62 821.013C898.086 821.013 898.086 828.054 902.62 828.054Z" fill="black"/>
<path d="M902.755 914.726C907.288 914.726 907.288 907.686 902.755 907.686C898.221 907.686 898.221 914.726 902.755 914.726Z" fill="black"/>
<path d="M903.624 927.506C908.158 927.506 908.158 920.466 903.624 920.466C899.09 920.466 899.09 927.506 903.624 927.506Z" fill="black"/>
<path d="M903.703 939.436C908.237 939.436 908.237 932.396 903.703 932.396C899.169 932.396 899.169 939.436 903.703 939.436Z" fill="black"/>
<path d="M903.706 951.599C908.24 951.599 908.24 944.559 903.706 944.559C899.172 944.559 899.172 951.599 903.706 951.599Z" fill="black"/>
<path d="M903.835 963.822C908.369 963.822 908.369 956.782 903.835 956.782C899.301 956.782 899.301 963.822 903.835 963.822Z" fill="black"/>
<path d="M904.701 976.622C909.235 976.622 909.235 969.582 904.701 969.582C900.167 969.582 900.167 976.622 904.701 976.622Z" fill="black"/>
<path d="M904.787 988.555C909.321 988.555 909.321 981.515 904.787 981.515C900.253 981.515 900.253 988.555 904.787 988.555Z" fill="black"/>
<path d="M904.783 1000.72C909.317 1000.72 909.317 993.676 904.783 993.676C900.249 993.676 900.249 1000.72 904.783 1000.72Z" fill="black"/>
<path d="M872.867 1084.7C877.401 1084.7 877.401 1077.66 872.867 1077.66C868.333 1077.66 868.333 1084.7 872.867 1084.7Z" fill="black"/>
<path d="M873.736 1097.48C878.27 1097.48 878.27 1090.44 873.736 1090.44C869.203 1090.44 869.203 1097.48 873.736 1097.48Z" fill="black"/>
<path d="M873.815 1109.41C878.349 1109.41 878.349 1102.37 873.815 1102.37C869.282 1102.37 869.282 1109.41 873.815 1109.41Z" fill="black"/>
<path d="M873.818 1121.58C878.352 1121.58 878.352 1114.54 873.818 1114.54C869.285 1114.54 869.285 1121.58 873.818 1121.58Z" fill="black"/>
<path d="M875.591 848.846C880.124 848.846 880.124 841.806 875.591 841.806C871.057 841.806 871.057 848.846 875.591 848.846Z" fill="black"/>
<path d="M875.598 860.781C880.131 860.781 880.131 853.741 875.598 853.741C871.064 853.741 871.064 860.781 875.598 860.781Z" fill="black"/>
<path d="M876.46 873.558C880.994 873.558 880.994 866.518 876.46 866.518C871.926 866.518 871.926 873.558 876.46 873.558Z" fill="black"/>
<path d="M878.169 885.493C882.703 885.493 882.703 878.452 878.169 878.452C873.635 878.452 873.635 885.493 878.169 885.493Z" fill="black"/>
<path d="M878.172 896.58C882.705 896.58 882.705 889.54 878.172 889.54C873.638 889.54 873.638 896.58 878.172 896.58Z" fill="black"/>
<path d="M878.167 906.798C882.701 906.798 882.701 899.758 878.167 899.758C873.633 899.758 873.633 906.798 878.167 906.798Z" fill="black"/>
<path d="M878.167 918.73C882.701 918.73 882.701 911.689 878.167 911.689C873.633 911.689 873.633 918.73 878.167 918.73Z" fill="black"/>
<path d="M878.17 929.819C882.704 929.819 882.704 922.779 878.17 922.779C873.636 922.779 873.636 929.819 878.17 929.819Z" fill="black"/>
<path d="M878.167 940.286C882.701 940.286 882.701 933.246 878.167 933.246C873.633 933.246 873.633 940.286 878.167 940.286Z" fill="black"/>
<path d="M878.17 950.504C882.704 950.504 882.704 943.464 878.17 943.464C873.636 943.464 873.636 950.504 878.17 950.504Z" fill="black"/>
<path d="M878.169 962.44C882.703 962.44 882.703 955.399 878.169 955.399C873.635 955.399 873.635 962.44 878.169 962.44Z" fill="black"/>
<path d="M878.173 973.525C882.706 973.525 882.706 966.485 878.173 966.485C873.639 966.485 873.639 973.525 878.173 973.525Z" fill="black"/>
<path d="M800.206 650.338C807.81 646.209 815.414 642.059 823.019 637.93C840.762 632.17 858.505 626.409 876.269 620.67C877.052 631.86 878.351 670.736 851.581 707.3C831.262 735.068 805.234 747.208 793.673 751.771C791.2 746.485 787.594 740.25 782.256 733.974C769.377 718.779 753.797 712.048 745.307 709.158C739.866 708.435 734.446 707.713 729.006 706.99C741.288 694.252 753.076 683.97 763.318 675.856C780.01 662.622 793.982 653.703 800.185 650.338H800.206Z" fill="black"/>
<path d="M1168.31 673.439C1180.35 705.584 1191.08 738.184 1201.39 770.928C1204 779.331 1209.18 795.703 1211.61 804.147C1214.14 819.693 1219.42 849.568 1201.63 857.888C1193.84 861.026 1185.77 856.711 1178.57 854.791C1168.93 851.901 1158.91 851.405 1149.02 853.594C1142.26 855.039 1136.06 857.702 1129.57 860.386C1126.02 861.749 1122.17 863.153 1118.17 862.265C1106.12 858.797 1107.46 842.817 1108.57 832.989C1108.71 845.005 1110.75 865.899 1127.75 856.216C1140.18 849.32 1154.92 844.076 1169.61 845.563C1176.72 846.058 1184.03 848.536 1190.67 850.27C1193.84 851.034 1196.52 851.219 1198.44 850.311C1210 844.097 1204.87 817.071 1203.26 805.675C1201.53 800.204 1195.99 780.57 1193.93 773.178C1184.67 740.125 1175.83 706.967 1168.33 673.459L1168.31 673.439Z" fill="black"/>
<path d="M998.085 1136.09C998.003 1138.81 997.117 1156.07 982.32 1168.46C966.782 1181.47 948.462 1178.62 945.927 1178.17" stroke="black" stroke-width="0.773546" stroke-miterlimit="10"/>
<path d="M781.474 1156.2C770.305 1158.84 764.143 1169.19 761.382 1173.46C750.501 1190.29 716.993 1209.51 649.997 1247.93C642.104 1252.45 619.188 1264.8 573.398 1289.47C540.528 1307.18 516.809 1319.8 487.092 1341.17C487.092 1341.17 470.915 1351.84 458.221 1363.38C359.839 1452.9 343.291 1597.17 332.719 1689.28C330.246 1710.85 329.793 1747.54 328.907 1820.93C326.928 1985.58 335.543 2034.89 334.347 2185.15C333.173 2332.5 324.517 2330.88 331.627 2349.18C408.041 2545.75 1285.29 2260.96 1433.05 2360.76C1438.31 2364.31 1456.46 2377.61 1472.58 2371.85C1503.08 2360.94 1501.04 2290.87 1502.99 2125.81C1504.62 1988.12 1506.19 2024.29 1505.71 1966.63C1504.46 1814.2 1504.23 1738 1491.6 1671.48C1477.81 1599.05 1462.11 1492.05 1382.93 1400.07C1332.86 1341.89 1242.16 1271.07 1198.21 1248.98C1193.2 1246.46 1171.68 1235.98 1147.14 1217.15C1126.06 1200.98 1115.53 1192.89 1107.47 1181C1099.39 1169.06 1095.23 1157.54 1087.91 1157.79C1082.68 1157.96 1081.07 1163.96 1069.98 1171.83C1064.54 1175.69 1060.19 1177.59 1053.68 1180.46C990.705 1208.17 952.086 1209.05 952.086 1209.05C942.504 1209.28 907.986 1209.74 871.139 1193.94C829.408 1176.06 818.445 1169.66 818.445 1169.66C803.751 1161.09 793.448 1153.35 781.495 1156.18L781.474 1156.2Z" fill="black" stroke="white" stroke-width="1.16032" stroke-miterlimit="10"/>
<path d="M1187.29 733.129L1186.84 705.402C1247.24 714.672 1307.64 723.942 1368.04 733.191C1367.57 771.654 1367.11 810.118 1366.64 848.581C1316.81 840.24 1267 831.92 1217.17 823.579L1187.29 733.129Z" fill="black" stroke="black" stroke-width="1.68097" stroke-miterlimit="10"/>
<path d="M1198.34 746.031C1191.23 741.819 1175.53 733.85 1154.18 733.664C1136.21 733.499 1122.44 738.949 1115.21 742.438" stroke="black" stroke-width="7.0958" stroke-miterlimit="10"/>
<path d="M1130.21 703.46C1119.84 746.961 1109.48 790.482 1099.11 833.983C1039.39 830.7 979.668 827.417 919.947 824.135C909.684 780.531 899.442 736.927 889.18 693.302C969.529 696.688 1049.86 700.074 1130.21 703.46Z" fill="black" stroke="black" stroke-width="1.68097" stroke-miterlimit="10"/>
</g>
<path d="M1138.85 555.283L1137.41 472.988H1109.03V454.841H1078.7V460.745L1030.39 463.45V454.841L1008.78 457.463L1010.47 472.018L1003.38 472.369L1005.23 514.156L992.373 454.841L962.574 460.745L969.889 492.106L962.491 493.676L969.889 522.559L975.165 521.258L979.802 540.376L1002.02 534.43V565.007L1034.62 555.613V540.727L1102.36 540.046V564.924L1138.85 555.283Z" fill="black" stroke="black" stroke-width="0.119007" stroke-miterlimit="10"/>
<path d="M1131.77 549.521L1130.32 467.227H1101.95V449.08H1071.59V454.984L1023.31 457.71V449.08L1001.69 451.722L1003.38 466.257L996.291 466.608L998.146 508.416L985.287 449.08L955.488 454.984L962.783 486.345L955.405 487.935L962.783 516.798L968.079 515.518L972.716 534.636L994.931 528.669V559.246L1027.53 549.872V534.966L1095.27 534.306V559.184L1131.77 549.521Z" fill="white" stroke="black" stroke-width="0.119007" stroke-miterlimit="10"/>
<path d="M1023.31 508.85H1024.53V528.463H1023.31V545.414H1023.19L1023.31 546.136L999.76 552.433V532.221L1003.51 531.25V475.094H1023.31V508.85ZM1009.18 469.272L1007.61 455.955L1019.21 454.51L1020.78 467.827L1009.18 469.272Z" fill="black"/>
<path d="M1101.96 528.442H1023.32V508.828H1082.26V504.472H1032.02L1028.27 463.325L1055.8 460.909L1076.22 459.093V454.984H1095.8V477.013L1076.22 478.83L1055.8 480.647V480.771L1049.64 481.245L1050.01 484.879H1101.94V528.442H1101.96Z" fill="black"/>
<path d="M1101.71 532.202L1105.46 531.231V475.075H1125.26V545.374H1125.14L1125.26 546.096L1101.71 552.393V532.181V532.202Z" fill="black"/>
<path d="M968.497 491.34L962.81 461.383L982.14 457.688L991.496 506.907L968.477 511.305L964.809 492.042L968.477 491.34H968.497ZM972.722 513.576L992.052 509.88L994.917 524.972L975.586 528.668L972.722 513.576Z" fill="black"/>
<path opacity="0.72" d="M1074.62 964.649C1077.36 968.097 1080.12 971.524 1082.87 974.972C1085.09 977.924 1098.18 994.812 1122.02 997.682C1147.35 1000.72 1164.76 985.563 1167.36 983.23L1181.62 976.087C1170.47 976.272 1158.64 976.066 1146.21 975.261C1119.44 973.547 1095.44 969.521 1074.62 964.649Z" fill="#C6C8C8"/>
<path d="M1074.01 955.916C1094.23 956.824 1114.18 958.208 1134.35 958.414C1154.53 958.868 1174.5 958.166 1194.75 957.919C1155.39 967.643 1113.02 966.9 1074.01 955.916Z" fill="black"/>
<path d="M1073.12 973.466C1097.13 994.318 1129.88 1007.92 1161.16 996.878C1171.22 993.493 1180.76 988.31 1189.95 982.282C1182.41 990.292 1173.22 996.92 1162.87 1001.4C1130.74 1015.65 1093.2 1000.72 1073.12 973.466Z" fill="black"/>
<path d="M1029.66 944.227C1028.05 930.105 1105.35 898.042 1177.79 912.7C1196.15 916.417 1232.64 926.884 1232.79 940.056C1232.87 946.993 1222.75 952.485 1219.19 954.756C1210.76 960.083 1197.75 963.592 1178.34 958.245C1151.59 950.895 1142.42 950.544 1137.74 950.544C1122.21 950.524 1113.9 950.668 1092.61 956.655C1069.29 963.221 1030.75 953.848 1029.66 944.227Z" fill="black" stroke="black" stroke-width="2.85617" stroke-miterlimit="10"/>
</g>
</g>
<defs>
<clipPath id="clip0_292_10">
<rect width="1917" height="1917" fill="white"/>
</clipPath>
<clipPath id="clip1_292_10">
<rect width="1361" height="2532" fill="white" transform="translate(227 -111)"/>
</clipPath>
</defs>
</svg>
