<svg width="46" height="42" viewBox="0 0 46 42" fill="none" xmlns="http://www.w3.org/2000/svg">
<path d="M17.4512 28.2967C16.1387 28.2967 15.0293 27.8839 14.123 27.0582C13.2168 26.2325 12.7637 25.2217 12.7637 24.0259C12.7637 22.83 13.2168 21.8193 14.123 20.9936C15.0293 20.1679 16.1387 19.755 17.4512 19.755C18.7637 19.755 19.873 20.1679 20.7793 20.9936C21.6855 21.8193 22.1387 22.83 22.1387 24.0259C22.1387 25.2217 21.6855 26.2325 20.7793 27.0582C19.873 27.8839 18.7637 28.2967 17.4512 28.2967ZM9.95117 37.6925C8.91992 37.6925 8.03711 37.358 7.30273 36.6889C6.56836 36.0198 6.20117 35.2155 6.20117 34.2759V10.3592C6.20117 9.41963 6.56836 8.61529 7.30273 7.94619C8.03711 7.27709 8.91992 6.94255 9.95117 6.94255H11.8262V3.52588H15.5762V6.94255H30.5762V3.52588H34.3262V6.94255H36.2012C37.2324 6.94255 38.1152 7.27709 38.8496 7.94619C39.584 8.61529 39.9512 9.41963 39.9512 10.3592V34.2759C39.9512 35.2155 39.584 36.0198 38.8496 36.6889C38.1152 37.358 37.2324 37.6925 36.2012 37.6925H9.95117ZM9.95117 34.2759H36.2012V17.1925H9.95117V34.2759Z" fill="#FEF7FF"/>
</svg>
