<svg width="817" height="337" viewBox="0 0 817 337" fill="none" xmlns="http://www.w3.org/2000/svg">
<path d="M178.723 0.514343L208.767 0.512451L208.773 96.7275L210.801 96.7274L210.803 126.587L178.731 126.589L178.723 0.514343Z" fill="white"/>
<path d="M258.738 96.7243L258.736 60.2289L249.336 60.2296L252.656 96.7247L258.738 96.7243ZM216.525 30.3718L288.963 30.3672L288.969 126.582L255.238 126.584L225.932 134.881L225.194 126.586L208.79 126.587L208.788 96.7275L222.427 96.7266L216.525 30.3718Z" fill="white"/>
<path d="M365.929 30.3622L365.933 96.7175L367.776 96.7173L367.778 126.577L365.935 126.577L365.937 152.382L325.572 163.075L325.57 132.294L335.707 129.528L335.707 126.579L301.976 126.581L298.287 83.4507L293.491 30.3669L365.929 30.3622ZM329.438 96.7198L335.705 96.7194L335.703 60.224L326.302 60.2246L327.409 73.4956L329.438 96.7198Z" fill="white"/>
<path d="M403.897 96.715L405.741 96.7149L405.743 126.575L365.929 126.577L365.927 96.7175L373.669 96.717L373.663 0.501923L403.891 0.5L403.897 96.715Z" fill="white"/>
<path d="M484.083 30.3547L484.086 82.7016L454.042 90.8136L454.04 60.2165L444.64 60.2171L447.776 96.7122L486.114 96.7098L486.116 126.57L450.358 126.572L421.052 134.868L420.314 126.574L403.91 126.575L403.908 96.715L417.547 96.7142L411.645 30.3593L484.083 30.3547Z" fill="white"/>
<path d="M533.958 96.7067L533.956 60.2114L524.556 60.212L527.876 96.7072L533.958 96.7067ZM491.745 30.3542L564.182 30.3496L564.189 126.565L530.458 126.567L501.152 134.863L500.414 126.569L484.01 126.57L484.008 96.7099L497.647 96.709L491.745 30.3542Z" fill="white"/>
<path d="M656.19 126.559L583.937 126.563L583.935 96.7036L626.144 96.7009L626.142 60.2055L616.741 60.2061L619.324 90.0658L589.28 90.0677L583.931 30.3484L656.184 30.3438L656.19 126.559Z" fill="white"/>
<path d="M737.368 96.6938L739.396 96.6937L739.398 126.553L665.117 126.558L665.115 96.6984L707.324 96.6957L707.322 60.2003L697.922 60.2009L700.504 90.0606L670.46 90.0625L665.111 30.3432L737.364 30.3386L737.368 96.6938Z" fill="white"/>
<path d="M753.663 30.3375L816.148 30.3336L816.154 126.549L785.926 134.661L785.926 126.551L737.449 126.554L737.448 96.6938L785.924 96.6907L785.921 60.1953L781.129 60.1956L778.366 90.0557L745.189 90.0577L745.187 60.1979L750.901 60.1976L753.663 30.3375Z" fill="white"/>
<path d="M40.3726 101.655L131.546 93.7897V11.3492H161.873V124.078L12.4631 131.943L5.76627 55.2959H0V25.0077H33.493L40.3813 101.655H40.3726ZM117.934 25.0951L83.3282 22.1065L84.8154 4.53302L119.422 7.52165L117.934 25.0951ZM73.3872 21.9929L38.7984 25.1825L37.1807 7.61778L71.7696 4.42816L73.3872 21.9929Z" fill="white"/>
<path d="M112.759 196.413H188V296.5H28.8329L22.6848 227.494H16V196.413H51.2295L57.524 265.418H119.054L112.759 196.413ZM182.145 187.225L146.525 184.146L148.037 166.113L183.657 169.192L182.145 187.225ZM145.305 182.289L110.173 188.838L106.855 171.049L141.987 164.5L145.305 182.289ZM156.772 265.418V227.446H147.013L150.282 265.418H156.772Z" fill="white"/>
<path d="M230.157 266.611H456V296.5L230.157 298.068V325.223H229.968L230.157 326.41L194 336.5V304.103L199.766 302.569V212.5H230.157V266.66V266.611Z" fill="white"/>
<path d="M540 265.578V296.5H230V265.578H468.284L462.078 196.929H538.03V265.578H540ZM493.257 187.788L490.745 166.785L509.314 164.5L511.826 185.503L493.257 187.788ZM496.557 227.85L500.054 265.627H506.408V227.85H496.557Z" fill="white"/>
<path d="M538 265.732H732.168V166.5H764V296.5H538V265.684V265.732Z" fill="white"/>
<path d="M804.277 197.641V314.225L772 322.5V166.5H810V197.641H804.277Z" fill="white"/>
</svg>
