<svg width="760" height="213" viewBox="0 0 760 213" fill="none" xmlns="http://www.w3.org/2000/svg">
<g clip-path="url(#clip0_42_17161)">
<path d="M89.3726 156.426L180.546 148.561V66.1202H210.873V178.849L61.4631 186.714L54.7663 110.067H49V79.7788H82.493L89.3813 156.426H89.3726ZM166.934 79.8662L132.328 76.8775L133.815 59.3041L168.422 62.2927L166.934 79.8662ZM122.387 76.7639L87.7984 79.9535L86.1807 62.3888L120.77 59.1992L122.387 76.7639Z" fill="white"/>
<path d="M218.691 48.0645H249.019V145.649H251.063V175.937H218.691V48.0645Z" fill="white"/>
<path d="M249.02 175.938V145.65H262.413V114.427H256.647V84.1385H292.932V145.641H294.793V175.929H249.02V175.938ZM266.51 57.5992V42.4551L286.6 37.0371V54.7941L276.181 57.5992H294.228V75.1726H255.525L260.178 57.5992H266.501H266.51Z" fill="white"/>
<path d="M373.859 145.649L373.868 175.938H292.932V145.649H306.699L300.742 78.3528H373.859V145.649ZM330.695 69.3782L328.277 48.8161L346.141 46.5703L348.559 67.1324L330.695 69.3782ZM333.861 108.632L337.209 145.649H343.35V108.632H333.861Z" fill="white"/>
<path d="M548.013 203.229L511.729 212.946V181.723L517.495 180.228V78.3443H548.005V93.4885H583.168L587.821 145.65H590.43V175.938H560.103L555.45 123.777H548.005V203.229H548.013ZM549.501 48.8164L584.107 51.805L582.62 69.3785L548.013 66.3899L549.501 48.8164Z" fill="white"/>
<path d="M604.206 78.3528H667.278V175.938L636.769 184.161V175.938H587.838V145.649H636.769V108.632H631.933L629.141 138.921H595.648V108.632H601.414L604.206 78.3441V78.3528ZM629.132 69.3782L626.715 48.8161L644.579 46.5703L646.996 67.1324L629.132 69.3782Z" fill="white"/>
<path d="M683.465 21.5172V6.37305L703.556 0.955078V18.712L692.762 21.5172H710.992V39.0906H672.48L677.133 21.5172H683.456H683.465ZM705.608 78.3534V191.825L675.098 199.865V48.0652H711.009V78.3534H705.617H705.608Z" fill="white"/>
<path d="M452.894 160.078L451.224 134.224H429.431V160.078H452.894ZM480.108 184.138H407V62.7866H437.431V103.979H472.871L480.108 184.138Z" fill="white"/>
<path d="M472.571 66.3077L407.016 64.4582L407.017 36.9551H455.268L472.571 66.3077Z" fill="white"/>
</g>
<defs>
<clipPath id="clip0_42_17161">
<rect width="760" height="212" fill="white" transform="translate(0 0.955078)"/>
</clipPath>
</defs>
</svg>
