<svg width="70" height="56" viewBox="0 0 70 56" fill="none" xmlns="http://www.w3.org/2000/svg">
<rect x="0.553711" y="0.573242" width="69.0845" height="54.5875" fill="#8C1D18"/>
<path d="M35.6043 41.3151C36.5398 41.3151 37.324 41.065 37.9568 40.565C38.5897 40.0649 38.9061 39.4453 38.9061 38.7061C38.9061 37.9669 38.5897 37.3473 37.9568 36.8472C37.324 36.3472 36.5398 36.0971 35.6043 36.0971C34.6687 36.0971 33.8846 36.3472 33.2517 36.8472C32.6188 37.3473 32.3024 37.9669 32.3024 38.7061C32.3024 39.4453 32.6188 40.0649 33.2517 40.565C33.8846 41.065 34.6687 41.3151 35.6043 41.3151Z" fill="white"/>
<path fill-rule="evenodd" clip-rule="evenodd" d="M35.6043 54.3599C31.0367 54.3599 26.7443 53.675 22.7271 52.3053C18.7099 50.9356 15.2154 49.0767 12.2438 46.7287C9.27215 44.3806 6.91959 41.6195 5.18613 38.4452C3.45267 35.271 2.58594 31.8793 2.58594 28.2703C2.58594 24.6612 3.45267 21.2696 5.18613 18.0953C6.91959 14.9211 9.27215 12.1599 12.2438 9.81187C15.2154 7.46381 18.7099 5.60492 22.7271 4.23522C26.7443 2.86552 31.0367 2.18066 35.6043 2.18066C40.1718 2.18066 44.4642 2.86552 48.4814 4.23522C52.4986 5.60492 55.9931 7.46381 58.9647 9.81187C61.9364 12.1599 64.2889 14.9211 66.0224 18.0953C67.7558 21.2696 68.6226 24.6612 68.6226 28.2703C68.6226 31.8793 67.7558 35.271 66.0224 38.4452C64.2889 41.6195 61.9364 44.3806 58.9647 46.7287C55.9931 49.0767 52.4986 50.9356 48.4814 52.3053C44.4642 53.675 40.1718 54.3599 35.6043 54.3599ZM37.9568 40.565C37.324 41.065 36.5398 41.3151 35.6043 41.3151C34.6687 41.3151 33.8846 41.065 33.2517 40.565C32.6188 40.0649 32.3024 39.4453 32.3024 38.7061C32.3024 37.9669 32.6188 37.3473 33.2517 36.8472C33.8846 36.3472 34.6687 36.0971 35.6043 36.0971C36.5398 36.0971 37.324 36.3472 37.9568 36.8472C38.5897 37.3473 38.9061 37.9669 38.9061 38.7061C38.9061 39.4453 38.5897 40.0649 37.9568 40.565ZM38.9061 30.8792H32.3024V15.2255H38.9061V30.8792Z" fill="#8C1D18"/>
<path d="M32.3024 30.8792H38.9061V15.2255H32.3024V30.8792Z" fill="white"/>
</svg>
