<svg width="46" height="45" viewBox="0 0 46 45" fill="none" xmlns="http://www.w3.org/2000/svg">
<g clip-path="url(#clip0_45_61225)">
<path d="M41.7996 11.6989H19.3996C17.7196 9.53884 15.9596 9.29883 13.4796 9.29883H13.3996C10.0396 9.29883 7.47965 11.6188 6.67963 12.4988H3.79957C2.0396 12.4989 0.599609 13.9389 0.599609 15.6989V30.179C0.599609 31.9389 2.0396 33.2989 3.79957 33.2989H6.75961C9.8796 35.6189 10.9996 35.699 16.5996 35.699C19.5596 35.699 22.9196 34.899 23.8796 34.739C25.7196 35.219 27.6396 34.259 28.2796 32.419C28.5196 31.699 28.5196 30.819 28.2796 30.0991C29.7196 30.0991 31.0796 29.1391 31.5596 27.699L31.6396 27.6191C31.9596 26.7391 31.8796 25.699 31.4796 24.899C31.4102 24.7603 31.3306 24.6266 31.2427 24.4984C32.9212 24.1769 34.1996 22.6578 34.1996 20.8989C34.1996 20.1788 33.9596 19.4589 33.5596 18.8989H41.7996C43.7996 18.8989 45.3996 17.2989 45.3996 15.2989C45.3996 13.2989 43.7996 11.6989 41.7996 11.6989ZM7.47965 31.8589C7.31961 31.7789 7.15966 31.6988 6.99962 31.6988H3.79957C2.91958 31.6988 2.19955 30.9788 2.19955 30.1789V15.6989C2.19955 14.8189 2.91958 14.0989 3.79957 14.0989H6.99953C7.23955 14.0989 7.47956 14.0189 7.63951 13.7789C7.63951 13.7789 10.0395 10.9789 13.3195 10.8989H13.3995C15.8795 10.8989 16.9995 11.059 18.2794 12.9789L18.3594 13.0589L18.9858 13.7992C20.914 16.3277 23.0063 19.1054 23.7994 20.2589C24.5995 21.5389 24.8395 22.5789 24.3594 23.2189C24.0232 23.6225 23.3478 23.7987 22.7132 23.7024C22.6182 23.6827 22.5265 23.6552 22.4394 23.6189C21.4795 23.2189 19.7995 22.0989 17.9594 20.5789C17.875 20.5155 17.785 20.4694 17.6924 20.4396C15.5122 18.6102 13.4847 16.5296 13.0795 15.5389C12.9194 15.1389 12.4395 14.9789 12.0394 15.1389C11.6395 15.299 11.4794 15.7789 11.6395 16.179C12.1412 17.3495 14.085 19.4158 16.2375 21.2819C16.0585 21.541 15.919 21.82 15.7995 22.0989L15.7195 22.259C15.4113 23.1449 15.475 24.0674 15.8283 24.8579C14.6004 25.1 13.5116 25.9767 13.0795 27.219C12.4395 29.059 13.4794 31.139 15.3195 31.779L20.797 33.675C19.5261 33.8994 18.0013 34.099 16.5994 34.099C10.9996 34.0989 10.3596 34.0189 7.47965 31.8589ZM17.1596 26.4989L23.3991 28.6587L25.5345 29.4014C25.9115 29.547 26.2128 29.7752 26.4319 30.0551C26.4939 30.1454 26.5503 30.2404 26.5995 30.3389C26.8395 30.8189 26.8395 31.3789 26.6795 31.8589C26.3595 32.8989 25.2395 33.4589 24.1195 33.0588C24.0409 33.0588 23.9621 33.0396 23.8834 33.0294L15.8796 30.2588C14.7596 29.8589 14.2795 28.7389 14.5995 27.6989C14.7596 27.2188 15.1595 26.8189 15.6395 26.5789C15.8796 26.4188 16.1995 26.3388 16.5195 26.3388C16.7596 26.3389 16.9996 26.4189 17.1596 26.4989ZM28.8396 24.6589C29.3196 24.819 29.7196 25.139 29.9596 25.6189C30.1996 26.0189 30.1996 26.5789 30.0396 27.0589L29.9596 27.2189C29.8401 27.5776 29.6311 27.8914 29.3329 28.1273C28.853 28.4381 28.2468 28.5257 27.6396 28.3389L26.0396 27.7789C25.8883 27.7285 25.745 27.7179 25.6146 27.7395L23.8778 27.1382L18.3597 25.2189C17.3196 24.819 16.8397 23.7789 17.1597 22.7389L17.2397 22.5789C17.2397 22.4989 17.3196 22.3389 17.3997 22.2589C17.4657 22.3099 17.5306 22.3594 17.5959 22.4096C19.028 23.5465 20.4393 24.4992 21.4839 24.9604C21.5064 24.9703 21.5287 24.9801 21.5509 24.9895C21.6082 25.014 21.6647 25.0375 21.7197 25.0589C22.1057 25.2215 22.5228 25.2959 22.9472 25.2961C22.9909 25.2975 23.0346 25.2989 23.0796 25.2989C23.634 25.2989 24.1879 25.1648 24.6652 24.9134C25.2953 24.6318 25.8641 24.2102 26.2795 23.6989L28.8396 24.6589ZM30.5996 22.8189H30.2796L28.4396 22.5789C28.3144 22.5789 28.1893 22.6024 28.074 22.647L26.2796 22.0189C26.2325 22.0001 26.1854 21.986 26.1387 21.9759C26.0575 21.2658 25.7608 20.4006 25.0796 19.3789C24.9896 19.2317 24.8804 19.0627 24.7563 18.8769L30.7595 18.7389C31.2396 18.7389 31.7195 18.979 32.0396 19.2989C32.3596 19.6989 32.5996 20.1789 32.5996 20.7389C32.5996 21.8589 31.7196 22.8189 30.5996 22.8189ZM41.7996 17.2989H30.7596C30.6797 17.2989 30.6797 17.2989 30.5996 17.2989H23.7996C23.7486 17.2989 23.6999 17.3032 23.6527 17.3102C22.7665 16.0943 21.6589 14.6387 20.6279 13.2989H41.7997C42.9197 13.2989 43.7997 14.1789 43.7997 15.2989C43.7997 16.4189 42.9196 17.2989 41.7996 17.2989Z" fill="white"/>
</g>
<defs>
<clipPath id="clip0_45_61225">
<rect width="44.8" height="44.8" fill="white" transform="translate(0.599609 0.0996094)"/>
</clipPath>
</defs>
</svg>
