<svg width="198" height="126" viewBox="0 0 198 126" fill="none" xmlns="http://www.w3.org/2000/svg">
<g clip-path="url(#clip0_1_834)">
<path d="M197.745 115.168L196.203 26.3757H165.703V6.80389H133.095V13.1808L81.2239 16.113V6.80389L57.9847 9.65071L59.7963 25.3509L52.1679 25.7067L54.1776 70.8003L40.3502 6.80389L8.33614 13.1808L16.191 47.0009L8.25122 48.709L16.191 79.8674L21.8664 78.4725L26.8482 99.0834L50.7243 92.6638V125.658L85.7529 115.524V99.4677L158.542 98.7275V125.573L197.745 115.168Z" fill="#108786" stroke="white" stroke-width="0.36" stroke-miterlimit="10"/>
<path d="M190.117 108.962L188.574 20.1697H158.089V0.597839H125.48V6.9747L73.5955 9.90692V0.597839L50.3563 3.44465L52.1679 19.1448L44.5536 19.5007L46.5492 64.5942L32.7217 0.597839L0.707721 6.9747L8.56262 40.7949L0.622803 42.503L8.56262 73.6613L14.238 72.2664L19.234 92.8773L43.0959 86.4578V119.452L78.1245 109.318V93.2617L150.913 92.5215V119.367L190.117 108.962Z" fill="#108786" stroke="white" stroke-width="0.72" stroke-miterlimit="10"/>
<path d="M73.5953 65.064H74.8974V86.2158H73.5953V104.492H73.4679L73.5953 105.275L48.2898 112.065V90.2725L52.3092 89.2334V28.6532H73.5953V65.0782V65.064ZM58.4092 22.3902L56.725 8.02803L69.1796 6.46228L70.8638 20.8245L58.4092 22.3902Z" fill="white"/>
<path d="M158.088 86.2158H73.5952V65.064H136.93V60.3667H82.9362L78.9167 15.9849L108.511 13.3801L130.448 11.4158V6.97473H151.479V30.7314L130.448 32.6957L108.511 34.66V34.7881L101.887 35.3148L102.283 39.2291H158.088V86.2158Z" fill="white"/>
<path d="M157.82 90.2583L161.839 89.2192V28.6532H183.125V104.492H182.998L183.125 105.275L157.82 112.065V90.2725V90.2583Z" fill="white"/>
<path d="M14.6907 46.2038L8.5625 13.8925L29.3391 9.90692L39.4018 62.9858L14.6624 67.7257L10.7279 46.9582L14.6766 46.2038H14.6907ZM19.2338 70.174L40.0104 66.1884L43.0957 82.4722L22.3192 86.4578L19.2338 70.174Z" fill="white"/>
</g>
<defs>
<clipPath id="clip0_1_834">
<rect width="198" height="126" fill="white"/>
</clipPath>
</defs>
</svg>
