<svg width="953" height="538" viewBox="0 0 953 538" fill="none" xmlns="http://www.w3.org/2000/svg">
<path d="M256.105 121.594H388.291L395.59 239.324H411.053V116.344H509.928L513.919 152.015H520.74L518.127 116.344H726.689V153.466C726.857 141.156 727.024 128.858 727.192 116.548C725.91 88.6914 724.615 60.8351 723.333 32.9669C757.11 33.3385 790.888 33.722 824.665 34.0936L829.016 55.2255L835.836 23.4258L950.042 34.0936L947.693 104.993C947.489 148.695 947.273 192.409 947.07 236.111C941.065 237.394 935.071 238.688 929.066 239.971C929.594 296.942 930.121 353.925 930.648 410.896C886.407 425.927 842.153 440.958 797.912 455.977C797.48 439.256 797.049 422.547 796.629 405.826C744.225 406.461 691.821 407.108 639.416 407.744L538.479 445.069L537.113 402.218C534.895 403.417 532.69 404.627 530.472 405.826V459.824C511.618 459.393 492.751 458.973 473.897 458.542C477.757 480.405 481.616 502.256 485.464 524.119C445.837 527.727 406.222 531.335 366.595 534.943L357.042 472.734L290.206 471.355L277.932 246.012L253.384 243.243L256.117 121.582L256.105 121.594Z" fill="#108786" stroke="white" stroke-width="4.76645" stroke-miterlimit="10"/>
<path d="M238.101 101.026H370.287L377.586 218.755H393.049V95.7755H491.924L495.915 131.447H502.736L500.123 95.7755H708.685V132.897C708.853 120.587 709.02 108.289 709.188 95.9793C707.906 68.123 706.611 40.2668 705.329 12.3985C739.106 12.7701 772.884 13.1537 806.661 13.5253L811.012 34.6572L817.832 2.85742L932.038 13.5253L929.689 84.4244C929.485 128.127 929.269 171.841 929.066 215.543C923.06 216.826 917.067 218.12 911.062 219.403C911.59 276.374 912.117 333.357 912.644 390.328C868.403 405.359 824.149 420.389 779.908 435.408C779.476 418.687 779.045 401.978 778.625 385.258C726.221 385.893 673.817 386.54 621.412 387.175L520.475 424.501L519.109 381.65C516.891 382.848 514.686 384.059 512.469 385.258V439.256C493.614 438.824 474.748 438.405 455.893 437.973C459.753 459.836 463.612 481.688 467.46 503.551C427.833 507.159 388.218 510.766 348.591 514.374L339.038 452.165L272.202 450.787L259.928 225.444L235.38 222.675L238.113 101.014L238.101 101.026Z" fill="#108786" stroke="white" stroke-width="4.76645" stroke-miterlimit="10"/>
<path d="M263.669 111.993H388.267L395.147 222.975H409.71V107.043H502.916L506.68 140.665H513.105L510.635 107.043H707.235V142.031L711.119 141.971V29.5272H799.59L803.689 49.4485L810.114 19.4707L917.763 29.5272L915.558 96.3511L917.763 208.723L897.554 209.73L899.496 384.706L794.951 420.414V379.66L624.973 381.746L529.825 416.926L528.531 376.532H507.962V429.967H445.202L452.669 489.91L367.818 501.633L358.816 442.996L295.804 441.689L284.237 229.28L261.092 226.667L263.669 111.993Z" fill="#108786"/>
<path d="M497.82 290.767H502.915V365.861H497.82V403.414H318.421L301.736 213.359H287.364V138.265H370.801L387.954 328.32H422.258V123.893H497.82V290.767ZM384.25 481.757L378.221 430.767L422.726 425.206L428.755 476.195L384.25 481.757Z" fill="white"/>
<path d="M699.468 123.893V255.539L623.906 275.94V198.987H600.269L608.144 290.767H704.562V365.861H614.628L540.924 386.717L539.067 365.861H497.81V290.767H532.114L517.275 123.893H699.456H699.468Z" fill="white"/>
<path d="M794.949 290.77H799.588V365.864H699.466V290.77H718.932V48.7896H794.949V290.77Z" fill="white"/>
<path d="M890.446 198.99V365.864L814.429 386.265V365.864H794.963V290.77H814.429V123.896H903.895V198.99H890.446ZM900.646 86.8102L814.429 79.8581L818.133 35.8203L904.35 43.2398L900.646 86.8102Z" fill="white"/>
<path d="M116.817 138.89L190.677 121.354L204.857 221.044L134.041 237.861L129.942 209.19L62.1713 225.287L26.5 75.9735L180.297 39.4512L196.994 109.367L114.444 128.965L116.817 138.89ZM210.778 232.407L223.867 287.221L153.052 304.038L139.963 249.224L210.778 232.407Z" fill="white" stroke="white" stroke-width="42.4733" stroke-miterlimit="10"/>
<path d="M116.817 138.89L190.677 121.354L204.857 221.044L134.041 237.861L129.942 209.19L62.1713 225.287L26.5 75.9735L180.297 39.4512L196.994 109.367L114.444 128.965L116.817 138.89ZM210.778 232.407L223.867 287.221L153.052 304.038L139.963 249.224L210.778 232.407Z" fill="white" stroke="white" stroke-width="42.4733" stroke-miterlimit="10"/>
<path d="M116.817 138.89L190.677 121.354L204.857 221.044L134.041 237.861L129.942 209.19L62.1713 225.287L26.5 75.9735L180.297 39.4512L196.994 109.367L114.444 128.965L116.817 138.89ZM210.778 232.407L223.867 287.221L153.052 304.038L139.963 249.224L210.778 232.407Z" fill="white" stroke="#108786" stroke-width="37.408" stroke-miterlimit="10"/>
<path d="M116.817 138.89L190.677 121.354L204.857 221.044L134.041 237.861L129.942 209.19L62.1713 225.287L26.5 75.9735L180.297 39.4512L196.994 109.367L114.444 128.965L116.817 138.89ZM210.778 232.407L223.867 287.221L153.052 304.038L139.963 249.224L210.778 232.407Z" fill="white" stroke="#108786" stroke-width="37.408" stroke-miterlimit="10"/>
</svg>
