<svg width="725" height="433" viewBox="0 0 725 433" fill="none" xmlns="http://www.w3.org/2000/svg">
<path d="M93.8496 362.562H105.944V121.433H176.388V432.575H29.459L14.3323 261.446H0.5V191.433H78.2794L93.8376 362.562H93.8496ZM40.6902 170.697L35.0686 123.159L76.5533 117.969L82.1749 165.507L40.6902 170.697Z" fill="white"/>
<path d="M357.021 121.435V277.005H361.348V347.017H357.021V407.512L262.377 432.576V360.406L286.146 353.922V347.005H207.06L198.418 245.889L187.187 121.435H357.021ZM271.451 277.005H286.146V191.447H264.103L266.692 222.563L271.451 277.017V277.005Z" fill="white"/>
<path d="M446.046 277.005H450.373V347.018H357.035V277.005H375.182V51.4346H446.058V277.005H446.046Z" fill="white"/>
<path d="M724.343 121.434V191.446H711.374V382.017H552.351V347.016H446.044V277.004H464.191V121.434H534.635V277.004H552.351V134.834H623.226V312.016H640.51V121.446H724.343V121.434ZM626.247 100.685L545.866 93.7691L549.318 53.1474L629.699 60.0635L626.247 100.685ZM573.087 52.7279L567.466 5.19009L608.95 0L614.572 47.5378L573.087 52.7279Z" fill="white"/>
</svg>
