<svg width="890" height="281" viewBox="0 0 890 281" fill="none" xmlns="http://www.w3.org/2000/svg">
<path d="M560.781 202.082H567.08V76.4934H603.77V238.546H527.244L519.366 149.417H512.162V112.952H552.672L560.775 202.082H560.781ZM533.094 102.152L530.166 77.3924L551.773 74.6893L554.701 99.4485L533.094 102.152Z" fill="white"/>
<path d="M697.85 76.4935V157.52H700.104V193.985H697.85V225.492L648.556 238.546V200.958L660.936 197.58V193.978H619.745L615.244 141.313L609.395 76.4935H697.85ZM653.282 157.52H660.936V112.958H649.455L650.804 129.165L653.282 157.526V157.52Z" fill="white"/>
<path d="M744.216 157.52H746.47V193.984H697.856V157.52H707.308V40.035H744.222V157.52H744.216Z" fill="white"/>
<path d="M889.163 76.4934V112.958H882.408V212.214H799.584V193.985H744.216V157.52H753.668V76.4934H790.357V157.52H799.584V83.473H836.498V175.755H845.5V76.4997H889.163V76.4934ZM838.071 65.687L796.207 62.0848L798.005 40.9277L839.869 44.5299L838.071 65.687ZM810.384 40.7092L807.456 15.9499L829.063 13.2468L831.991 38.006L810.384 40.7092Z" fill="white"/>
<path d="M133.583 63.8417H202.429L206.231 125.159H214.284V61.1073H265.782L267.861 79.6861H271.413L270.052 61.1073H378.678V80.4415C378.766 74.0301 378.853 67.6249 378.941 61.2134C378.273 46.705 377.598 32.1965 376.93 17.6818C394.523 17.8753 412.115 18.0751 429.708 18.2686L431.974 29.2748L435.526 12.7125L495.008 18.2686L493.785 55.1953C493.678 77.9569 493.566 100.725 493.46 123.486C490.332 124.154 487.211 124.828 484.083 125.496C484.358 155.169 484.633 184.848 484.907 214.52C461.865 222.349 438.816 230.177 415.774 237.999C415.549 229.291 415.324 220.588 415.106 211.879C387.812 212.21 360.518 212.547 333.224 212.878L280.653 232.318L279.941 210C278.786 210.624 277.637 211.255 276.482 211.879V240.003C266.662 239.779 256.836 239.56 247.016 239.335C249.026 250.722 251.036 262.103 253.04 273.49C232.401 275.369 211.769 277.248 191.13 279.128L186.154 246.727L151.344 246.009L144.951 128.643L132.166 127.201L133.589 63.8355L133.583 63.8417Z" fill="#108786" stroke="white" stroke-width="2.48253" stroke-miterlimit="10"/>
<path d="M124.206 53.1291H193.052L196.854 114.447H204.907V50.3947H256.405L258.484 68.9735H262.036L260.675 50.3947H369.301V69.7289C369.389 63.3175 369.476 56.9123 369.564 50.5008C368.896 35.9924 368.221 21.4839 367.553 6.96921C385.146 7.16274 402.738 7.36252 420.331 7.55605L422.597 18.5623L426.149 1.99988L485.631 7.55605L484.408 44.4827C484.302 67.2443 484.189 90.0121 484.083 112.774C480.955 113.442 477.834 114.116 474.706 114.784C474.981 144.456 475.256 174.135 475.53 203.807C452.488 211.636 429.439 219.464 406.397 227.287C406.172 218.578 405.947 209.875 405.729 201.167C378.435 201.497 351.141 201.835 323.847 202.165L271.276 221.606L270.564 199.287C269.409 199.912 268.26 200.542 267.105 201.167V229.291C257.285 229.066 247.459 228.848 237.639 228.623C239.649 240.01 241.659 251.391 243.663 262.778C223.024 264.657 202.392 266.536 181.753 268.415L176.777 236.014L141.967 235.296L135.574 117.93L122.789 116.488L124.212 53.1229L124.206 53.1291Z" fill="#108786" stroke="white" stroke-width="2.48253" stroke-miterlimit="10"/>
<path d="M137.522 58.8412H202.417L206 116.644H213.585V56.2629H262.13L264.09 73.7742H267.436L266.15 56.2629H368.546V74.4859L370.569 74.4547V15.8902H416.647L418.783 26.2658L422.129 10.6524L478.196 15.8902L477.047 50.6943L478.196 109.221L467.671 109.746L468.682 200.879L414.231 219.477V198.251L325.701 199.337L276.145 217.66L275.471 196.622H264.758V224.452H232.07L235.96 255.673L191.766 261.779L187.078 231.238L154.259 230.558L148.235 119.928L136.18 118.567L137.522 58.8412Z" fill="#108786"/>
<path d="M259.476 151.954H262.13V191.066H259.476V210.624H166.039L157.349 111.637H149.864V72.5256H193.32L202.254 171.513H220.121V65.0404H259.476V151.954ZM200.325 251.428L197.185 224.871L220.365 221.974L223.505 248.531L200.325 251.428Z" fill="white"/>
<path d="M364.501 65.0404V133.606L325.145 144.231V104.152H312.834L316.936 151.954H367.154V191.066H320.313L281.926 201.928L280.958 191.066H259.47V151.954H277.337L269.609 65.0404H364.494H364.501Z" fill="white"/>
<path d="M414.231 151.954H416.647V191.066H364.5V151.954H374.639V25.9225H414.231V151.954Z" fill="white"/>
<path d="M463.969 104.152V191.066L424.377 201.691V191.066H414.238V151.954H424.377V65.0405H470.974V104.152H463.969ZM469.282 45.725L424.377 42.1041L426.306 19.1678L471.211 23.0321L469.282 45.725Z" fill="white"/>
<path d="M61.0401 72.8503L99.5088 63.717L106.894 115.639L70.0112 124.398L67.8761 109.465L32.5788 117.849L14 40.0814L94.1024 21.0594L102.799 57.4741L59.804 67.6812L61.0401 72.8503ZM109.978 121.557L116.795 150.106L79.9124 158.865L73.0951 130.316L109.978 121.557Z" fill="white" stroke="white" stroke-width="22.1215" stroke-miterlimit="10"/>
<path d="M61.0401 72.8503L99.5088 63.717L106.894 115.639L70.0112 124.398L67.8761 109.465L32.5788 117.849L14 40.0814L94.1024 21.0594L102.799 57.4741L59.804 67.6812L61.0401 72.8503ZM109.978 121.557L116.795 150.106L79.9124 158.865L73.0951 130.316L109.978 121.557Z" fill="white" stroke="white" stroke-width="22.1215" stroke-miterlimit="10"/>
<path d="M61.0401 72.8503L99.5088 63.717L106.894 115.639L70.0112 124.398L67.8761 109.465L32.5788 117.849L14 40.0814L94.1024 21.0594L102.799 57.4741L59.804 67.6812L61.0401 72.8503ZM109.978 121.557L116.795 150.106L79.9124 158.865L73.0951 130.316L109.978 121.557Z" fill="white" stroke="#108786" stroke-width="19.4833" stroke-miterlimit="10"/>
<path d="M61.0401 72.8503L99.5088 63.717L106.894 115.639L70.0112 124.398L67.8761 109.465L32.5788 117.849L14 40.0814L94.1024 21.0594L102.799 57.4741L59.804 67.6812L61.0401 72.8503ZM109.978 121.557L116.795 150.106L79.9124 158.865L73.0951 130.316L109.978 121.557Z" fill="white" stroke="#108786" stroke-width="19.4833" stroke-miterlimit="10"/>
</svg>
