<svg width="125" height="71" viewBox="0 0 125 71" fill="none" xmlns="http://www.w3.org/2000/svg">
<rect x="0.0878906" y="0.777344" width="123.945" height="70.2287" fill="#8C1D18"/>
<path fill-rule="evenodd" clip-rule="evenodd" d="M26.6923 50.4937H97.3077V20.6997H26.6923V50.4937ZM30.5385 23.8919H93.4615V47.3015H30.5385V23.8919ZM18.8462 13.2512H30.6154V5.80273H18.8462C14.5308 5.80273 11 9.15456 11 13.2512V24.424H18.8462V13.2512ZM105.154 57.9422H93.3846V65.3907H105.154C109.469 65.3907 113 62.0389 113 57.9422V46.7695H105.154V57.9422Z" fill="white"/>
<path d="M47.8689 42.084H45.8849L42.0129 30.628H44.3809L46.9249 39.268L49.4209 30.628H51.8049L47.8689 42.084ZM64.7704 39.78H60.4824L59.7144 42.084H57.3144L61.3784 30.628H63.9864L67.9544 42.084H65.5224L64.7704 39.78ZM64.1304 37.812L62.6424 33.332L61.1384 37.812H64.1304ZM76.5942 37.54V42.084H74.2422V30.628H80.3862C81.3569 30.628 82.0982 30.8893 82.6102 31.412C83.1862 31.9987 83.4742 32.772 83.4742 33.732C83.4742 35.1187 82.8235 36.0627 81.5222 36.564C82.2582 36.852 82.7062 37.2093 82.8662 37.636C82.9835 37.9453 83.0689 38.9747 83.1222 40.724C83.1329 41.1613 83.2982 41.4707 83.6182 41.652V42.084H81.0902C80.8555 41.6467 80.7382 41.0013 80.7382 40.148C80.7382 39.9347 80.7435 39.6733 80.7542 39.364C80.7542 39.1507 80.7542 38.996 80.7542 38.9C80.7542 37.9933 80.2689 37.54 79.2982 37.54H76.5942ZM76.5942 35.572H79.4422C80.0395 35.572 80.4555 35.476 80.6902 35.284C80.9782 35.0387 81.1222 34.6333 81.1222 34.068C81.1222 33.524 80.9782 33.1347 80.6902 32.9C80.4449 32.6973 80.0289 32.596 79.4422 32.596H76.5942V35.572Z" fill="white"/>
</svg>
